<svg width="38" height="35" viewBox="0 0 38 35" fill="none" xmlns="http://www.w3.org/2000/svg">
<path d="M34.1647 16.9627V33.1243L3.40542 33.2011V16.9624H1.70294V33.2011C1.7095 33.6437 1.8934 34.065 2.21358 34.3706C2.53353 34.6764 2.96305 34.8409 3.40542 34.8271H34.2157C34.6494 34.8271 35.0655 34.6565 35.3745 34.3524C35.6836 34.0482 35.8607 33.6347 35.8672 33.2011V16.9624L34.1647 16.9627Z" fill="#999999"/>
<path d="M37.5865 8.61975C37.5865 8.16838 37.4072 7.73521 37.0877 7.41604C36.7685 7.09658 36.3354 6.9173 35.8838 6.9173H1.7027C1.25109 6.9173 0.817908 7.09658 0.498743 7.41604C0.179285 7.73526 0 8.16843 0 8.61975V16.9627H37.5867L37.5865 8.61975ZM1.70261 8.59424H35.8582V15.2344L1.70261 15.2346V8.59424Z" fill="#999999"/>
<path d="M11.2254 1.63902C11.2254 1.59214 11.2636 1.554 11.3107 1.554H26.2421C26.2647 1.554 26.2863 1.56299 26.3024 1.57878C26.3182 1.59481 26.3272 1.61643 26.3272 1.63902V6.18903H27.8811V2.63902C27.8811 1.93912 27.6032 1.26789 27.1081 0.773037C26.6132 0.278181 25.942 0 25.2421 0H12.3107C11.6108 0 10.9395 0.278163 10.4444 0.773037C9.94956 1.26789 9.67163 1.93912 9.67163 2.63902V6.18903H11.2256L11.2254 1.63902Z" fill="#999999"/>
<path d="M11.9019 25.4543L15.7413 26.9952V28.3913L10.6333 26.2545V24.688L15.7413 22.5512V23.9218L11.9019 25.4543Z" fill="#01ABBD"/>
<path d="M16.4395 30.4936L20.134 19.8185H21.6409L17.9291 30.4936H16.4395Z" fill="#01ABBD"/>
<path d="M25.6847 25.3603L21.8369 23.8367V22.432L26.9449 24.5688V26.1693L21.8369 28.3146V26.9012L25.6847 25.3603Z" fill="#01ABBD"/>
</svg>
