<svg width="131" height="143" viewBox="0 0 131 143" fill="none" xmlns="http://www.w3.org/2000/svg">
<path d="M15.7467 48.4826L16.7466 48.4924L16.7466 48.4924L15.7467 48.4826ZM15.7474 48.4096L14.7474 48.3998L14.7474 48.3998L15.7474 48.4096ZM21.7933 43.7357L21.803 42.7357L21.803 42.7357L21.7933 43.7357ZM118.485 44.6789L118.475 45.6789L118.475 45.6789L118.485 44.6789ZM130.491 44.7959L120.548 38.9253L120.435 50.4717L130.491 44.7959ZM14.6982 53.4285C14.6956 53.6944 14.6939 53.8714 14.6929 53.9707C14.6925 54.0204 14.6922 54.0507 14.6921 54.063C14.692 54.0659 14.692 54.0682 14.692 54.0694C14.692 54.0695 14.692 54.0706 14.692 54.0717C14.692 54.0732 15.6344 55.0771 16.6858 54.1898C16.69 54.1418 16.6919 54.0924 16.6919 54.0911C16.6919 54.0896 16.6919 54.0879 16.6919 54.0878C16.6919 54.0848 16.692 54.0775 16.6921 54.0663C16.693 53.9764 16.6965 53.6205 16.7017 53.0882C16.7121 52.0235 16.7294 50.2529 16.7466 48.4924L14.7467 48.4729C14.7295 50.2333 14.7122 52.004 14.7018 53.0687C14.6966 53.601 14.6931 53.9568 14.6922 54.0465C14.6921 54.0578 14.692 54.0647 14.692 54.0672C14.692 54.0684 14.692 54.0675 14.692 54.0663C14.692 54.0651 14.6939 54.0157 14.6981 53.9677C15.7496 53.0804 16.6919 54.0842 16.6919 54.0857C16.6919 54.0861 16.6919 54.0868 16.6919 54.0869C16.6919 54.087 16.6919 54.0871 16.6919 54.0871C16.6919 54.0871 16.6919 54.0871 16.6919 54.087C16.6919 54.0869 16.6919 54.0868 16.6919 54.0867C16.6919 54.0864 16.6919 54.0861 16.6919 54.0856C16.6919 54.0847 16.692 54.0835 16.692 54.082C16.6921 54.0699 16.6924 54.0398 16.6929 53.9901C16.6938 53.8909 16.6955 53.7139 16.6981 53.448L14.6982 53.4285ZM16.7466 48.4924L16.7473 48.4194L14.7474 48.3998L14.7467 48.4729L16.7466 48.4924ZM21.7835 44.7356L118.475 45.6789L118.495 43.679L21.803 42.7357L21.7835 44.7356ZM118.475 45.6789L121.482 45.7082L121.501 43.7083L118.495 43.679L118.475 45.6789ZM16.7473 48.4194C16.7605 47.0746 17.2931 46.2061 18.1099 45.6396C18.9742 45.0401 20.2484 44.7206 21.7835 44.7356L21.803 42.7357C20.0246 42.7184 18.2921 43.0791 16.9699 43.9963C15.6002 44.9464 14.7667 46.4311 14.7474 48.3998L16.7473 48.4194Z" fill="#F3F9FC"/>
<path d="M124.838 75.5404L123.838 75.5224L123.838 75.5224L124.838 75.5404ZM118.791 81.4324L118.784 82.4324L118.791 81.4324ZM19.1675 80.647L19.1493 81.6469L19.1596 81.647L19.1675 80.647ZM0.582117 80.3085L10.4753 86.2632L10.6856 74.7181L0.582117 80.3085ZM123.907 71.6557L123.838 75.5224L125.838 75.5583L125.907 71.6916L123.907 71.6557ZM118.799 80.4324L19.1754 79.6471L19.1596 81.647L118.784 82.4324L118.799 80.4324ZM19.1857 79.6472L9.59884 79.4726L9.56241 81.4722L19.1493 81.6469L19.1857 79.6472ZM123.838 75.5224C123.789 78.2637 121.541 80.454 118.799 80.4324L118.784 82.4324C122.622 82.4626 125.769 79.3962 125.838 75.5583L123.838 75.5224Z" fill="#F3F9FC"/>
</svg>

