<svg width="36" height="36" viewBox="0 0 36 36" fill="none" xmlns="http://www.w3.org/2000/svg">
<path d="M31.0642 13.9733L31.0527 13.9404C30.8704 13.3597 31.1803 12.7343 31.7589 12.5317C32.3487 12.3269 32.9941 12.6375 33.2005 13.2271C33.812 14.9822 34.1446 16.8668 34.1446 18.8284C34.1446 28.2159 26.5237 35.8389 17.1355 35.8389C7.74804 35.8389 0.125 28.2166 0.125 18.8284C0.125 9.44097 7.74733 1.81793 17.1355 1.81793C19.1553 1.81793 21.0934 2.17191 22.8917 2.81856C23.4782 3.0295 23.7841 3.67768 23.5716 4.26573L23.5716 4.2659C23.3605 4.85248 22.7123 5.15833 22.126 4.94748C20.5672 4.38511 18.8867 4.07952 17.1358 4.07952C8.99485 4.07952 2.38688 10.6893 2.38688 18.8284C2.38688 26.9677 8.99449 33.5773 17.1358 33.5773C25.2753 33.5773 31.8833 26.9675 31.8833 18.8284C31.8833 17.1282 31.5964 15.4935 31.0642 13.9733Z" fill="#999999" stroke="#F5F8F9" stroke-width="0.25"/>
<path d="M25.1162 15.6925L25.1238 15.7122C25.5011 16.6775 25.7084 17.7292 25.7084 18.8285C25.7084 23.5608 21.8666 27.4003 17.1366 27.4003C12.4044 27.4003 8.56261 23.5602 8.56261 18.8285C8.56261 14.0962 12.4045 10.2545 17.1366 10.2545C18.2359 10.2545 19.2859 10.4618 20.253 10.8408C20.8335 11.0669 21.4908 10.7802 21.7185 10.1983C21.9446 9.6176 21.6579 8.96052 21.0763 8.73454L21.076 8.73442C19.8546 8.25617 18.5254 7.99292 17.1364 7.99292C11.1557 7.99292 6.30078 12.848 6.30078 18.8285C6.30078 24.8074 11.1559 29.6619 17.1364 29.6619C23.1153 29.6619 27.9698 24.8068 27.9698 18.8285C27.9698 17.4377 27.7082 16.1088 27.23 14.8872C27.0023 14.3067 26.3465 14.0187 25.7645 14.2463L25.1162 15.6925ZM25.1162 15.6925C24.9023 15.1154 25.1902 14.4715 25.7643 14.2463L25.1162 15.6925Z" fill="#999999" stroke="#F5F8F9" stroke-width="0.25"/>
<path d="M20.317 19.6296L20.1998 19.5832C19.861 20.9612 18.6164 21.9831 17.1365 21.9831C15.3952 21.9831 13.9802 20.5701 13.9802 18.8285C13.9802 17.303 15.0653 16.029 16.5036 15.7358C17.1833 15.5985 17.622 14.9356 17.4847 14.2558C17.3456 13.576 16.6827 13.1373 16.003 13.2747M20.317 19.6296C19.959 21.0538 18.6693 22.1081 17.1365 22.1081C15.3262 22.1081 13.8552 20.6393 13.8552 18.8285C13.8552 17.2424 14.9833 15.9182 16.4786 15.6133L16.4788 15.6133C17.0907 15.4897 17.4858 14.8929 17.3622 14.2806M20.317 19.6296L20.3204 19.6309L20.3503 19.485C20.4752 18.8743 21.0726 18.4779 21.6845 18.603L21.6848 18.6031C22.295 18.7264 22.6916 19.3252 22.5665 19.9355L22.5664 19.9357C22.0521 22.4641 19.815 24.3699 17.1365 24.3699C14.0778 24.3699 11.5936 21.8874 11.5936 18.8287C11.5936 16.15 13.4996 13.9115 16.0278 13.3972M20.317 19.6296C20.3291 19.5818 20.34 19.5335 20.3499 19.4849C20.3499 19.4848 20.35 19.4848 20.35 19.4847L22.6889 19.9606M17.3622 14.2806C17.3622 14.2807 17.3622 14.2808 17.3622 14.2808L17.4847 14.2558L17.3622 14.2805C17.3622 14.2806 17.3622 14.2806 17.3622 14.2806ZM17.3622 14.2806C17.2369 13.6685 16.6399 13.2735 16.0278 13.3972M16.0278 13.3972C16.0279 13.3972 16.0279 13.3972 16.0279 13.3972L16.003 13.2747M16.0278 13.3972C16.0278 13.3972 16.0278 13.3972 16.0277 13.3972L16.003 13.2747M16.003 13.2747C13.4177 13.8005 11.4686 16.0893 11.4686 18.8287C11.4686 21.9564 14.0088 24.4949 17.1365 24.4949C19.8757 24.4949 22.163 22.546 22.6889 19.9606M22.6889 19.9606C22.8279 19.2825 22.3876 18.6176 21.7095 18.4806C21.0715 18.35 20.448 18.73 20.2592 19.3379L22.6889 19.9606Z" fill="#999999" stroke="#F5F8F9" stroke-width="0.25"/>
<path d="M27.0832 7.31685L26.9948 7.22846L27.0832 7.31685C27.5232 6.87681 28.2413 6.8768 28.6813 7.31685C29.1231 7.75859 29.1231 8.47498 28.6813 8.9167L17.9353 19.6627L17.9349 19.6631C17.4932 20.1049 16.7768 20.1049 16.335 19.6631L16.2467 19.7515L16.335 19.6631C15.895 19.2231 15.895 18.5051 16.335 18.065L27.0832 7.31685Z" fill="#01ABBD" stroke="#F5F8F9" stroke-width="0.25"/>
<path d="M35.9462 4.63327L35.8265 4.66941C35.9441 5.0588 35.844 5.48082 35.5658 5.77397L35.5427 5.79704L31.8006 9.53916L31.8003 9.53945C31.5337 9.80785 31.149 9.92396 30.7799 9.85005L27.6606 9.22551L27.6604 9.22547C27.2129 9.13667 26.863 8.78697 26.7725 8.33902C26.7725 8.33898 26.7725 8.33893 26.7725 8.33889L26.1497 5.21993C26.076 4.8489 26.192 4.46589 26.459 4.19734C26.459 4.19729 26.4591 4.19724 26.4591 4.19719L30.2008 0.455537C30.2008 0.455498 30.2008 0.455458 30.2009 0.455418C30.4966 0.1613 30.9293 0.0528241 31.3289 0.17348C31.7285 0.294129 32.0282 0.624237 32.1097 1.03275L32.1097 1.03285L32.5703 3.33167L32.5867 3.41337L32.6684 3.42969L34.9652 3.88849C34.9653 3.8885 34.9653 3.88851 34.9654 3.88852C35.3744 3.97143 35.706 4.27185 35.8265 4.66953L35.9462 4.63327ZM35.9462 4.63327C36.068 5.03672 35.9794 5.47199 35.7155 5.79315L35.9462 4.63327ZM35.6314 5.88569L35.656 5.86046C35.648 5.86897 35.6397 5.87738 35.6314 5.88569ZM32.2857 5.85691L32.3868 5.75578L32.2731 5.6691L32.2727 5.66885L32.2497 5.65129L32.2213 5.64566L31.4029 5.48344C31.4028 5.48342 31.4028 5.48341 31.4027 5.48339C30.9548 5.39293 30.6051 5.04303 30.5163 4.59552L30.5163 4.59526L30.3523 3.77813L30.3064 3.54931L30.1414 3.71433L28.5341 5.32161L28.4868 5.36887L28.4999 5.43442L28.8265 7.0737L28.8427 7.15547L28.9245 7.17184L30.5638 7.50009L30.6294 7.51322L30.6767 7.46591L32.2857 5.85691Z" fill="#01ABBD" stroke="#F5F8F9" stroke-width="0.25"/>
</svg>
