<svg width="264" height="307" viewBox="0 0 264 307" fill="none" xmlns="http://www.w3.org/2000/svg">
<rect x="51.1094" y="1.2168" width="212" height="28" rx="14" stroke="#D3DDDE"/>
<path fill-rule="evenodd" clip-rule="evenodd" d="M10.6816 16.0246L18.2084 16.0246L14.9201 19.3129C14.6573 19.5757 14.6573 20.0069 14.9201 20.2697C15.1828 20.5325 15.6074 20.5325 15.8702 20.2697L20.3107 15.8291C20.5735 15.5663 20.5735 15.1418 20.3107 14.879L15.8702 10.4385C15.6074 10.1757 15.1828 10.1757 14.9201 10.4385C14.6573 10.7013 14.6573 11.1258 14.9201 11.3886L18.2084 14.6769L10.6816 14.6769C10.311 14.6769 10.0078 14.9801 10.0078 15.3507C10.0078 15.7213 10.311 16.0246 10.6816 16.0246Z" fill="#D3DDDE"/>
<rect x="0.109375" y="50.2168" width="65" height="36" rx="2" fill="#D3DDDE"/>
<rect x="71.1094" y="67.2168" width="192" height="19" rx="2" fill="#D3DDDE"/>
<rect x="71.1094" y="50.2168" width="77" height="13" rx="2" fill="#D3DDDE"/>
<line opacity="0.5" x1="0.109375" y1="41.7168" x2="263.109" y2="41.7168" stroke="#D3DDDE"/>
<rect x="0.109375" y="156.217" width="65" height="36" rx="2" fill="#D3DDDE"/>
<rect x="71.1094" y="173.217" width="192" height="19" rx="2" fill="#D3DDDE"/>
<rect x="71.1094" y="156.217" width="77" height="13" rx="2" fill="#D3DDDE"/>
<line opacity="0.5" x1="0.109375" y1="147.717" x2="263.109" y2="147.717" stroke="#D3DDDE"/>
<rect x="0.109375" y="209.217" width="65" height="36" rx="2" fill="#D3DDDE"/>
<rect x="71.1094" y="226.217" width="192" height="19" rx="2" fill="#D3DDDE"/>
<rect x="71.1094" y="209.217" width="77" height="13" rx="2" fill="#D3DDDE"/>
<line opacity="0.5" x1="0.109375" y1="200.717" x2="263.109" y2="200.717" stroke="#D3DDDE"/>
<rect x="0.109375" y="262.217" width="65" height="36" rx="2" fill="#D3DDDE"/>
<rect x="71.1094" y="279.217" width="192" height="19" rx="2" fill="#D3DDDE"/>
<rect x="71.1094" y="262.217" width="77" height="13" rx="2" fill="#D3DDDE"/>
<line opacity="0.5" x1="0.109375" y1="253.717" x2="263.109" y2="253.717" stroke="#D3DDDE"/>
<rect x="0.109375" y="103.217" width="65" height="36" rx="2" fill="#D3DDDE"/>
<rect x="71.1094" y="120.217" width="192" height="19" rx="2" fill="#D3DDDE"/>
<rect x="71.1094" y="103.217" width="77" height="13" rx="2" fill="#D3DDDE"/>
<line opacity="0.5" x1="0.109375" y1="94.7168" x2="263.109" y2="94.7168" stroke="#D3DDDE"/>
</svg>
