<svg width="265" height="337" viewBox="0 0 265 337" fill="none" xmlns="http://www.w3.org/2000/svg">
<rect x="51.7432" y="0.607025" width="212" height="28" rx="14" stroke="#D3DDDE"/>
<path fill-rule="evenodd" clip-rule="evenodd" d="M15.3193 15.7993H7.79262L11.0809 12.511C11.3437 12.2482 11.3437 11.8169 11.0809 11.5541C10.8181 11.2913 10.3936 11.2913 10.1308 11.5541L5.69026 15.9947C5.42747 16.2575 5.42747 16.682 5.69026 16.9448L10.1308 21.3853C10.3936 21.6481 10.8181 21.6481 11.0809 21.3853C11.3437 21.1225 11.3437 20.698 11.0809 20.4352L7.79262 17.1469H15.3193C15.6899 17.1469 15.9932 16.8437 15.9932 16.4731C15.9932 16.1025 15.6899 15.7993 15.3193 15.7993Z" fill="#D3DDDE"/>
<path fill-rule="evenodd" clip-rule="evenodd" d="M25.167 17.4148L32.6937 17.4148L29.4054 20.7031C29.1426 20.9659 29.1426 21.3971 29.4054 21.6599C29.6682 21.9227 30.0927 21.9227 30.3555 21.6599L34.7961 17.2194C35.0589 16.9566 35.0589 16.5321 34.7961 16.2693L30.3555 11.8287C30.0927 11.5659 29.6682 11.5659 29.4054 11.8287C29.1426 12.0915 29.1426 12.516 29.4054 12.7788L32.6937 16.0671L25.167 16.0671C24.7964 16.0671 24.4932 16.3703 24.4932 16.7409C24.4932 17.1116 24.7964 17.4148 25.167 17.4148Z" fill="#D3DDDE"/>
<rect x="0.743164" y="49.607" width="65" height="36" rx="2" fill="#D3DDDE"/>
<rect x="71.7432" y="66.607" width="192" height="19" rx="2" fill="#D3DDDE"/>
<rect x="71.7432" y="49.607" width="77" height="13" rx="2" fill="#D3DDDE"/>
<line opacity="0.5" x1="0.743164" y1="41.107" x2="263.743" y2="41.107" stroke="#D3DDDE"/>
<rect x="0.743164" y="155.607" width="65" height="36" rx="2" fill="#D3DDDE"/>
<rect x="71.7432" y="172.607" width="192" height="19" rx="2" fill="#D3DDDE"/>
<rect x="71.7432" y="155.607" width="77" height="13" rx="2" fill="#D3DDDE"/>
<line opacity="0.5" x1="0.743164" y1="147.107" x2="263.743" y2="147.107" stroke="#D3DDDE"/>
<rect x="0.743164" y="208.607" width="65" height="36" rx="2" fill="#D3DDDE"/>
<rect x="71.7432" y="225.607" width="192" height="19" rx="2" fill="#D3DDDE"/>
<rect x="71.7432" y="208.607" width="77" height="13" rx="2" fill="#D3DDDE"/>
<line opacity="0.5" x1="0.743164" y1="200.107" x2="263.743" y2="200.107" stroke="#D3DDDE"/>
<rect x="0.743164" y="261.607" width="65" height="36" rx="2" fill="#D3DDDE"/>
<rect x="71.7432" y="278.607" width="192" height="19" rx="2" fill="#D3DDDE"/>
<rect x="71.7432" y="261.607" width="77" height="13" rx="2" fill="#D3DDDE"/>
<line opacity="0.5" x1="0.743164" y1="253.107" x2="263.743" y2="253.107" stroke="#D3DDDE"/>
<rect x="0.743164" y="102.607" width="65" height="36" rx="2" fill="#D3DDDE"/>
<rect x="71.7432" y="119.607" width="192" height="19" rx="2" fill="#D3DDDE"/>
<rect x="71.7432" y="102.607" width="77" height="13" rx="2" fill="#D3DDDE"/>
<line opacity="0.5" x1="0.743164" y1="94.107" x2="263.743" y2="94.107" stroke="#D3DDDE"/>
<rect x="108.743" y="314.607" width="60" height="22" rx="2" fill="#D3DDDE"/>
</svg>
