<svg width="430" height="510" viewBox="0 0 430 510" fill="none" xmlns="http://www.w3.org/2000/svg">
<g filter="url(#filter0_d_114_104)">
<rect x="40.7822" y="36.9404" width="345.738" height="474.117" rx="9" fill="white"/>
</g>
<path d="M189.888 69.627L192.903 59.502H195.838L191.382 72.2988H189.449L189.888 69.627ZM187.111 59.502L190.117 69.627L190.574 72.2988H188.623L184.193 59.502H187.111ZM201.097 59.502V72.2988H198.469V59.502H201.097ZM213.414 70.2422V72.2988H206.603V70.2422H213.414ZM207.464 59.502V72.2988H204.827V59.502H207.464ZM212.526 64.7139V66.7178H206.603V64.7139H212.526ZM213.405 59.502V61.5674H206.603V59.502H213.405ZM219.297 70.2686L221.846 59.502H223.27L223.595 61.2949L220.879 72.2988H219.35L219.297 70.2686ZM217.988 59.502L220.097 70.2686L219.921 72.2988H218.216L215.377 59.502H217.988ZM225.836 70.2246L227.919 59.502H230.53L227.699 72.2988H225.994L225.836 70.2246ZM224.07 59.502L226.636 70.3125L226.566 72.2988H225.036L222.303 61.2861L222.655 59.502H224.07ZM239.884 68.9502C239.884 68.7217 239.849 68.5166 239.779 68.335C239.714 68.1475 239.591 67.9775 239.41 67.8252C239.228 67.667 238.973 67.5117 238.645 67.3594C238.317 67.207 237.892 67.0488 237.371 66.8848C236.791 66.6973 236.24 66.4863 235.718 66.252C235.203 66.0176 234.746 65.7451 234.347 65.4346C233.955 65.1182 233.644 64.752 233.416 64.3359C233.193 63.9199 233.082 63.4365 233.082 62.8857C233.082 62.3525 233.199 61.8691 233.433 61.4355C233.667 60.9961 233.996 60.6211 234.417 60.3105C234.839 59.9941 235.337 59.751 235.912 59.5811C236.492 59.4111 237.127 59.3262 237.819 59.3262C238.762 59.3262 239.585 59.4961 240.289 59.8359C240.992 60.1758 241.537 60.6416 241.923 61.2334C242.316 61.8252 242.512 62.502 242.512 63.2637H239.893C239.893 62.8887 239.814 62.5605 239.656 62.2793C239.503 61.9922 239.269 61.7666 238.953 61.6025C238.642 61.4385 238.249 61.3564 237.775 61.3564C237.318 61.3564 236.937 61.4268 236.632 61.5674C236.328 61.7021 236.099 61.8867 235.947 62.1211C235.794 62.3496 235.718 62.6074 235.718 62.8945C235.718 63.1113 235.771 63.3076 235.876 63.4834C235.988 63.6592 236.152 63.8232 236.369 63.9756C236.585 64.1279 236.852 64.2715 237.168 64.4062C237.485 64.541 237.851 64.6729 238.267 64.8018C238.964 65.0127 239.577 65.25 240.104 65.5137C240.637 65.7773 241.083 66.0732 241.44 66.4014C241.797 66.7295 242.067 67.1016 242.249 67.5176C242.43 67.9336 242.521 68.4053 242.521 68.9326C242.521 69.4893 242.413 69.9873 242.196 70.4268C241.979 70.8662 241.666 71.2383 241.255 71.543C240.845 71.8477 240.356 72.0791 239.788 72.2373C239.219 72.3955 238.583 72.4746 237.88 72.4746C237.248 72.4746 236.624 72.3926 236.008 72.2285C235.393 72.0586 234.833 71.8037 234.33 71.4639C233.832 71.124 233.433 70.6904 233.134 70.1631C232.835 69.6357 232.686 69.0117 232.686 68.291H235.332C235.332 68.6895 235.393 69.0264 235.516 69.3018C235.639 69.5771 235.812 69.7998 236.035 69.9697C236.263 70.1396 236.533 70.2627 236.843 70.3389C237.16 70.415 237.505 70.4531 237.88 70.4531C238.337 70.4531 238.712 70.3887 239.005 70.2598C239.304 70.1309 239.524 69.9521 239.665 69.7236C239.811 69.4951 239.884 69.2373 239.884 68.9502Z" fill="#01ABBD"/>
<path d="M109.701 96.2515L112.614 88.1582H113.465L110.025 97.4004H109.396L109.701 96.2515ZM106.692 88.1582L109.593 96.2515L109.91 97.4004H109.276L105.842 88.1582H106.692ZM115.893 90.5322V97.4004H115.137V90.5322H115.893ZM115.004 88.5454C115.004 88.4015 115.048 88.2809 115.137 88.1836C115.23 88.082 115.357 88.0312 115.518 88.0312C115.679 88.0312 115.806 88.082 115.899 88.1836C115.996 88.2809 116.045 88.4015 116.045 88.5454C116.045 88.6851 115.996 88.8057 115.899 88.9072C115.806 89.0046 115.679 89.0532 115.518 89.0532C115.357 89.0532 115.23 89.0046 115.137 88.9072C115.048 88.8057 115.004 88.6851 115.004 88.5454ZM122.472 95.6484C122.472 95.4622 122.425 95.2782 122.332 95.0962C122.239 94.9142 122.059 94.7471 121.792 94.5947C121.53 94.4424 121.143 94.3133 120.631 94.2075C120.25 94.1229 119.909 94.0277 119.609 93.9219C119.313 93.8161 119.063 93.6891 118.86 93.541C118.657 93.3929 118.502 93.2152 118.396 93.0078C118.291 92.8005 118.238 92.555 118.238 92.2715C118.238 92.0176 118.293 91.7785 118.403 91.5542C118.517 91.3257 118.678 91.1268 118.885 90.9575C119.097 90.784 119.351 90.6486 119.647 90.5513C119.947 90.4539 120.284 90.4053 120.656 90.4053C121.185 90.4053 121.638 90.4963 122.015 90.6782C122.395 90.856 122.685 91.0993 122.884 91.4082C123.087 91.7171 123.189 92.0662 123.189 92.4556H122.434C122.434 92.2186 122.364 91.9943 122.224 91.7827C122.089 91.5711 121.888 91.3976 121.621 91.2622C121.359 91.1268 121.037 91.0591 120.656 91.0591C120.263 91.0591 119.943 91.1183 119.698 91.2368C119.452 91.3553 119.272 91.5055 119.158 91.6875C119.048 91.8695 118.993 92.0578 118.993 92.2524C118.993 92.4048 119.016 92.5444 119.063 92.6714C119.114 92.7941 119.203 92.9084 119.33 93.0142C119.461 93.12 119.647 93.2194 119.888 93.3125C120.129 93.4056 120.442 93.4966 120.828 93.5854C121.382 93.7082 121.835 93.8584 122.186 94.0361C122.541 94.2096 122.804 94.4255 122.973 94.6836C123.142 94.9375 123.227 95.2464 123.227 95.6104C123.227 95.8939 123.168 96.1541 123.049 96.3911C122.931 96.6239 122.759 96.8249 122.535 96.9941C122.315 97.1634 122.048 97.2946 121.735 97.3877C121.426 97.4808 121.079 97.5273 120.694 97.5273C120.115 97.5273 119.624 97.4321 119.222 97.2417C118.824 97.047 118.521 96.7931 118.314 96.48C118.111 96.1626 118.009 95.8262 118.009 95.4707H118.765C118.79 95.8262 118.902 96.1076 119.101 96.3149C119.3 96.5181 119.543 96.6619 119.831 96.7466C120.123 96.8312 120.411 96.8735 120.694 96.8735C121.084 96.8735 121.409 96.8164 121.672 96.7021C121.934 96.5879 122.133 96.4377 122.268 96.2515C122.404 96.0653 122.472 95.8643 122.472 95.6484ZM129.736 95.8135V90.5322H130.498V97.4004H129.768L129.736 95.8135ZM129.876 94.5439L130.269 94.5312C130.269 94.9629 130.219 95.3607 130.117 95.7246C130.015 96.0885 129.857 96.4059 129.641 96.6768C129.425 96.9476 129.146 97.1571 128.803 97.3052C128.46 97.4533 128.048 97.5273 127.565 97.5273C127.231 97.5273 126.924 97.4808 126.645 97.3877C126.37 97.2904 126.133 97.138 125.934 96.9307C125.735 96.7233 125.581 96.4546 125.47 96.1245C125.365 95.7944 125.312 95.3945 125.312 94.9248V90.5322H126.067V94.9375C126.067 95.3057 126.107 95.6125 126.188 95.8579C126.272 96.1034 126.387 96.3001 126.531 96.4482C126.679 96.5964 126.848 96.7021 127.038 96.7656C127.229 96.8291 127.434 96.8608 127.654 96.8608C128.213 96.8608 128.653 96.7529 128.974 96.5371C129.3 96.3213 129.531 96.0378 129.666 95.6865C129.806 95.3311 129.876 94.9502 129.876 94.5439ZM137.051 96.1689V92.627C137.051 92.3011 136.984 92.0197 136.848 91.7827C136.713 91.5457 136.514 91.3638 136.252 91.2368C135.989 91.1099 135.666 91.0464 135.28 91.0464C134.925 91.0464 134.608 91.1099 134.328 91.2368C134.053 91.3595 133.835 91.5267 133.674 91.7383C133.518 91.9456 133.44 92.1763 133.44 92.4302L132.678 92.4238C132.678 92.1657 132.741 91.916 132.868 91.6748C132.995 91.4336 133.175 91.2178 133.408 91.0273C133.641 90.8369 133.918 90.6867 134.239 90.5767C134.565 90.4624 134.923 90.4053 135.312 90.4053C135.803 90.4053 136.235 90.4878 136.607 90.6528C136.984 90.8179 137.278 91.0654 137.489 91.3955C137.701 91.7256 137.807 92.1403 137.807 92.6396V95.9595C137.807 96.1965 137.824 96.4419 137.858 96.6958C137.896 96.9497 137.949 97.1592 138.016 97.3242V97.4004H137.21C137.159 97.248 137.119 97.0576 137.089 96.8291C137.064 96.5964 137.051 96.3763 137.051 96.1689ZM137.229 93.4014L137.242 93.9854H135.75C135.361 93.9854 135.012 94.0213 134.703 94.0933C134.398 94.161 134.14 94.2625 133.928 94.3979C133.717 94.5291 133.554 94.6878 133.44 94.874C133.33 95.0602 133.275 95.2718 133.275 95.5088C133.275 95.7542 133.336 95.9785 133.459 96.1816C133.586 96.3848 133.763 96.5477 133.992 96.6704C134.225 96.7889 134.5 96.8481 134.817 96.8481C135.24 96.8481 135.613 96.7699 135.934 96.6133C136.26 96.4567 136.529 96.2515 136.74 95.9976C136.952 95.7437 137.094 95.4665 137.166 95.166L137.496 95.604C137.441 95.8156 137.339 96.0335 137.191 96.2578C137.047 96.4779 136.859 96.6852 136.626 96.8799C136.393 97.0703 136.118 97.2269 135.801 97.3496C135.488 97.4681 135.132 97.5273 134.735 97.5273C134.286 97.5273 133.895 97.4427 133.56 97.2734C133.23 97.1042 132.972 96.8735 132.786 96.5815C132.604 96.2853 132.513 95.951 132.513 95.5786C132.513 95.2401 132.585 94.9375 132.729 94.6709C132.873 94.4001 133.08 94.1715 133.351 93.9854C133.626 93.7949 133.956 93.651 134.341 93.5537C134.73 93.4521 135.166 93.4014 135.649 93.4014H137.229ZM141.079 87.6504V97.4004H140.323V87.6504H141.079ZM144.389 90.5322V97.4004H143.633V90.5322H144.389ZM143.5 88.5454C143.5 88.4015 143.544 88.2809 143.633 88.1836C143.726 88.082 143.853 88.0312 144.014 88.0312C144.175 88.0312 144.302 88.082 144.395 88.1836C144.492 88.2809 144.541 88.4015 144.541 88.5454C144.541 88.6851 144.492 88.8057 144.395 88.9072C144.302 89.0046 144.175 89.0532 144.014 89.0532C143.853 89.0532 143.726 89.0046 143.633 88.9072C143.544 88.8057 143.5 88.6851 143.5 88.5454ZM151.812 96.7466V97.4004H146.689V96.7466H151.812ZM151.532 91.0972L146.88 97.4004H146.416V96.8291L151.056 90.5322H151.532V91.0972ZM151.196 90.5322V91.1924H146.543V90.5322H151.196ZM156.131 97.5273C155.682 97.5273 155.27 97.4448 154.893 97.2798C154.521 97.1147 154.195 96.882 153.916 96.5815C153.641 96.2811 153.427 95.9256 153.274 95.5151C153.126 95.1004 153.052 94.6476 153.052 94.1567V93.8838C153.052 93.3548 153.131 92.8766 153.287 92.4492C153.444 92.0218 153.66 91.6558 153.935 91.3511C154.21 91.0464 154.523 90.8136 154.874 90.6528C155.23 90.4878 155.602 90.4053 155.991 90.4053C156.427 90.4053 156.814 90.4836 157.153 90.6401C157.491 90.7925 157.775 91.0104 158.003 91.2939C158.236 91.5732 158.412 91.9054 158.53 92.2905C158.649 92.6714 158.708 93.0924 158.708 93.5537V94.0171H153.509V93.3696H157.953V93.2808C157.944 92.8957 157.866 92.536 157.718 92.2017C157.574 91.8631 157.358 91.5881 157.07 91.3765C156.783 91.1649 156.423 91.0591 155.991 91.0591C155.67 91.0591 155.373 91.1268 155.103 91.2622C154.836 91.3976 154.605 91.5923 154.411 91.8462C154.22 92.0959 154.072 92.3942 153.966 92.7412C153.865 93.084 153.814 93.4648 153.814 93.8838V94.1567C153.814 94.5376 153.869 94.8931 153.979 95.2231C154.093 95.549 154.254 95.8368 154.462 96.0864C154.673 96.3361 154.923 96.5308 155.211 96.6704C155.498 96.8101 155.816 96.8799 156.163 96.8799C156.569 96.8799 156.929 96.8058 157.242 96.6577C157.555 96.5054 157.836 96.2663 158.086 95.9404L158.562 96.3086C158.414 96.5286 158.228 96.7318 158.003 96.918C157.783 97.1042 157.519 97.2523 157.21 97.3623C156.901 97.4723 156.541 97.5273 156.131 97.5273ZM168.622 96.0674V87.6504H169.384V97.4004H168.673L168.622 96.0674ZM163.855 94.0361V93.9028C163.855 93.3696 163.917 92.8893 164.039 92.4619C164.162 92.0303 164.338 91.6621 164.566 91.3574C164.799 91.0485 165.078 90.8136 165.404 90.6528C165.73 90.4878 166.098 90.4053 166.509 90.4053C166.911 90.4053 167.266 90.4709 167.575 90.6021C167.884 90.7332 168.148 90.9215 168.368 91.167C168.593 91.4124 168.773 91.7044 168.908 92.043C169.048 92.3815 169.149 92.7581 169.213 93.1729V94.8677C169.162 95.257 169.069 95.6146 168.933 95.9404C168.798 96.262 168.618 96.5435 168.394 96.7847C168.17 97.0216 167.899 97.2057 167.581 97.3369C167.268 97.4639 166.906 97.5273 166.496 97.5273C166.09 97.5273 165.724 97.4427 165.398 97.2734C165.072 97.1042 164.795 96.8651 164.566 96.5562C164.338 96.243 164.162 95.8727 164.039 95.4453C163.917 95.0179 163.855 94.5482 163.855 94.0361ZM164.617 93.9028V94.0361C164.617 94.4382 164.657 94.8105 164.738 95.1533C164.818 95.4961 164.941 95.7944 165.106 96.0483C165.271 96.3022 165.48 96.5011 165.734 96.645C165.988 96.7889 166.289 96.8608 166.636 96.8608C167.071 96.8608 167.437 96.7783 167.734 96.6133C168.03 96.444 168.267 96.2218 168.445 95.9468C168.622 95.6675 168.751 95.3628 168.832 95.0327V93.0586C168.781 92.8343 168.707 92.6058 168.61 92.373C168.512 92.1403 168.379 91.9266 168.21 91.7319C168.045 91.533 167.833 91.3743 167.575 91.2559C167.321 91.1331 167.012 91.0718 166.648 91.0718C166.297 91.0718 165.994 91.1437 165.741 91.2876C165.487 91.4315 165.275 91.6325 165.106 91.8906C164.941 92.1445 164.818 92.4429 164.738 92.7856C164.657 93.1284 164.617 93.5008 164.617 93.9028ZM175.95 96.1689V92.627C175.95 92.3011 175.883 92.0197 175.747 91.7827C175.612 91.5457 175.413 91.3638 175.151 91.2368C174.888 91.1099 174.564 91.0464 174.179 91.0464C173.824 91.0464 173.507 91.1099 173.227 91.2368C172.952 91.3595 172.734 91.5267 172.573 91.7383C172.417 91.9456 172.339 92.1763 172.339 92.4302L171.577 92.4238C171.577 92.1657 171.64 91.916 171.767 91.6748C171.894 91.4336 172.074 91.2178 172.307 91.0273C172.54 90.8369 172.817 90.6867 173.138 90.5767C173.464 90.4624 173.822 90.4053 174.211 90.4053C174.702 90.4053 175.134 90.4878 175.506 90.6528C175.883 90.8179 176.177 91.0654 176.388 91.3955C176.6 91.7256 176.706 92.1403 176.706 92.6396V95.9595C176.706 96.1965 176.723 96.4419 176.757 96.6958C176.795 96.9497 176.847 97.1592 176.915 97.3242V97.4004H176.109C176.058 97.248 176.018 97.0576 175.988 96.8291C175.963 96.5964 175.95 96.3763 175.95 96.1689ZM176.128 93.4014L176.141 93.9854H174.649C174.26 93.9854 173.911 94.0213 173.602 94.0933C173.297 94.161 173.039 94.2625 172.827 94.3979C172.616 94.5291 172.453 94.6878 172.339 94.874C172.229 95.0602 172.174 95.2718 172.174 95.5088C172.174 95.7542 172.235 95.9785 172.358 96.1816C172.485 96.3848 172.662 96.5477 172.891 96.6704C173.124 96.7889 173.399 96.8481 173.716 96.8481C174.139 96.8481 174.512 96.7699 174.833 96.6133C175.159 96.4567 175.428 96.2515 175.639 95.9976C175.851 95.7437 175.993 95.4665 176.065 95.166L176.395 95.604C176.34 95.8156 176.238 96.0335 176.09 96.2578C175.946 96.4779 175.758 96.6852 175.525 96.8799C175.292 97.0703 175.017 97.2269 174.7 97.3496C174.387 97.4681 174.031 97.5273 173.633 97.5273C173.185 97.5273 172.793 97.4427 172.459 97.2734C172.129 97.1042 171.871 96.8735 171.685 96.5815C171.503 96.2853 171.412 95.951 171.412 95.5786C171.412 95.2401 171.484 94.9375 171.628 94.6709C171.771 94.4001 171.979 94.1715 172.25 93.9854C172.525 93.7949 172.855 93.651 173.24 93.5537C173.629 93.4521 174.065 93.4014 174.548 93.4014H176.128ZM181.73 90.5322V91.1543H178.289V90.5322H181.73ZM179.552 88.7676H180.308V95.731C180.308 96.0483 180.35 96.2874 180.435 96.4482C180.519 96.609 180.629 96.717 180.765 96.772C180.9 96.827 181.046 96.8545 181.203 96.8545C181.317 96.8545 181.427 96.8481 181.533 96.8354C181.639 96.8185 181.734 96.8016 181.818 96.7847L181.85 97.4258C181.757 97.4554 181.636 97.4787 181.488 97.4956C181.34 97.5168 181.192 97.5273 181.044 97.5273C180.752 97.5273 180.494 97.4744 180.27 97.3687C180.045 97.2586 179.87 97.0724 179.743 96.8101C179.616 96.5435 179.552 96.1816 179.552 95.7246V88.7676ZM187.89 96.1689V92.627C187.89 92.3011 187.822 92.0197 187.686 91.7827C187.551 91.5457 187.352 91.3638 187.09 91.2368C186.827 91.1099 186.504 91.0464 186.119 91.0464C185.763 91.0464 185.446 91.1099 185.166 91.2368C184.891 91.3595 184.673 91.5267 184.513 91.7383C184.356 91.9456 184.278 92.1763 184.278 92.4302L183.516 92.4238C183.516 92.1657 183.579 91.916 183.706 91.6748C183.833 91.4336 184.013 91.2178 184.246 91.0273C184.479 90.8369 184.756 90.6867 185.078 90.5767C185.403 90.4624 185.761 90.4053 186.15 90.4053C186.641 90.4053 187.073 90.4878 187.445 90.6528C187.822 90.8179 188.116 91.0654 188.328 91.3955C188.539 91.7256 188.645 92.1403 188.645 92.6396V95.9595C188.645 96.1965 188.662 96.4419 188.696 96.6958C188.734 96.9497 188.787 97.1592 188.854 97.3242V97.4004H188.048C187.997 97.248 187.957 97.0576 187.928 96.8291C187.902 96.5964 187.89 96.3763 187.89 96.1689ZM188.067 93.4014L188.08 93.9854H186.588C186.199 93.9854 185.85 94.0213 185.541 94.0933C185.236 94.161 184.978 94.2625 184.766 94.3979C184.555 94.5291 184.392 94.6878 184.278 94.874C184.168 95.0602 184.113 95.2718 184.113 95.5088C184.113 95.7542 184.174 95.9785 184.297 96.1816C184.424 96.3848 184.601 96.5477 184.83 96.6704C185.063 96.7889 185.338 96.8481 185.655 96.8481C186.078 96.8481 186.451 96.7699 186.772 96.6133C187.098 96.4567 187.367 96.2515 187.578 95.9976C187.79 95.7437 187.932 95.4665 188.004 95.166L188.334 95.604C188.279 95.8156 188.177 96.0335 188.029 96.2578C187.885 96.4779 187.697 96.6852 187.464 96.8799C187.231 97.0703 186.956 97.2269 186.639 97.3496C186.326 97.4681 185.97 97.5273 185.573 97.5273C185.124 97.5273 184.733 97.4427 184.398 97.2734C184.068 97.1042 183.81 96.8735 183.624 96.5815C183.442 96.2853 183.351 95.951 183.351 95.5786C183.351 95.2401 183.423 94.9375 183.567 94.6709C183.711 94.4001 183.918 94.1715 184.189 93.9854C184.464 93.7949 184.794 93.651 185.179 93.5537C185.568 93.4521 186.004 93.4014 186.487 93.4014H188.067ZM198.813 96.1689V92.627C198.813 92.3011 198.745 92.0197 198.61 91.7827C198.475 91.5457 198.276 91.3638 198.013 91.2368C197.751 91.1099 197.427 91.0464 197.042 91.0464C196.687 91.0464 196.369 91.1099 196.09 91.2368C195.815 91.3595 195.597 91.5267 195.436 91.7383C195.28 91.9456 195.201 92.1763 195.201 92.4302L194.44 92.4238C194.44 92.1657 194.503 91.916 194.63 91.6748C194.757 91.4336 194.937 91.2178 195.17 91.0273C195.402 90.8369 195.679 90.6867 196.001 90.5767C196.327 90.4624 196.685 90.4053 197.074 90.4053C197.565 90.4053 197.996 90.4878 198.369 90.6528C198.745 90.8179 199.039 91.0654 199.251 91.3955C199.463 91.7256 199.568 92.1403 199.568 92.6396V95.9595C199.568 96.1965 199.585 96.4419 199.619 96.6958C199.657 96.9497 199.71 97.1592 199.778 97.3242V97.4004H198.972C198.921 97.248 198.881 97.0576 198.851 96.8291C198.826 96.5964 198.813 96.3763 198.813 96.1689ZM198.991 93.4014L199.004 93.9854H197.512C197.122 93.9854 196.773 94.0213 196.464 94.0933C196.16 94.161 195.902 94.2625 195.69 94.3979C195.478 94.5291 195.316 94.6878 195.201 94.874C195.091 95.0602 195.036 95.2718 195.036 95.5088C195.036 95.7542 195.098 95.9785 195.22 96.1816C195.347 96.3848 195.525 96.5477 195.754 96.6704C195.986 96.7889 196.261 96.8481 196.579 96.8481C197.002 96.8481 197.374 96.7699 197.696 96.6133C198.022 96.4567 198.29 96.2515 198.502 95.9976C198.714 95.7437 198.855 95.4665 198.927 95.166L199.257 95.604C199.202 95.8156 199.101 96.0335 198.953 96.2578C198.809 96.4779 198.621 96.6852 198.388 96.8799C198.155 97.0703 197.88 97.2269 197.563 97.3496C197.249 97.4681 196.894 97.5273 196.496 97.5273C196.048 97.5273 195.656 97.4427 195.322 97.2734C194.992 97.1042 194.734 96.8735 194.547 96.5815C194.365 96.2853 194.275 95.951 194.275 95.5786C194.275 95.2401 194.346 94.9375 194.49 94.6709C194.634 94.4001 194.842 94.1715 195.112 93.9854C195.387 93.7949 195.718 93.651 196.103 93.5537C196.492 93.4521 196.928 93.4014 197.41 93.4014H198.991ZM202.751 91.9985V97.4004H201.996V90.5322H202.72L202.751 91.9985ZM202.58 93.541L202.244 93.3506C202.269 92.9443 202.352 92.5635 202.491 92.208C202.631 91.8525 202.819 91.5394 203.056 91.2686C203.297 90.9977 203.579 90.7861 203.9 90.6338C204.226 90.4814 204.586 90.4053 204.979 90.4053C205.322 90.4053 205.629 90.4518 205.9 90.5449C206.171 90.638 206.401 90.7861 206.592 90.9893C206.782 91.1924 206.926 91.4526 207.023 91.77C207.125 92.0874 207.176 92.4746 207.176 92.9316V97.4004H206.414V92.9253C206.414 92.4513 206.348 92.0811 206.217 91.8145C206.086 91.5436 205.9 91.3511 205.659 91.2368C205.417 91.1226 205.132 91.0654 204.802 91.0654C204.438 91.0654 204.118 91.1458 203.843 91.3066C203.572 91.4632 203.344 91.6685 203.158 91.9224C202.976 92.172 202.836 92.4408 202.739 92.7285C202.641 93.012 202.589 93.2829 202.58 93.541ZM213.996 96.0674V87.6504H214.758V97.4004H214.047L213.996 96.0674ZM209.229 94.0361V93.9028C209.229 93.3696 209.29 92.8893 209.413 92.4619C209.536 92.0303 209.711 91.6621 209.94 91.3574C210.173 91.0485 210.452 90.8136 210.778 90.6528C211.103 90.4878 211.472 90.4053 211.882 90.4053C212.284 90.4053 212.64 90.4709 212.949 90.6021C213.257 90.7332 213.522 90.9215 213.742 91.167C213.966 91.4124 214.146 91.7044 214.282 92.043C214.421 92.3815 214.523 92.7581 214.586 93.1729V94.8677C214.535 95.257 214.442 95.6146 214.307 95.9404C214.172 96.262 213.992 96.5435 213.767 96.7847C213.543 97.0216 213.272 97.2057 212.955 97.3369C212.642 97.4639 212.28 97.5273 211.869 97.5273C211.463 97.5273 211.097 97.4427 210.771 97.2734C210.445 97.1042 210.168 96.8651 209.94 96.5562C209.711 96.243 209.536 95.8727 209.413 95.4453C209.29 95.0179 209.229 94.5482 209.229 94.0361ZM209.991 93.9028V94.0361C209.991 94.4382 210.031 94.8105 210.111 95.1533C210.192 95.4961 210.314 95.7944 210.479 96.0483C210.644 96.3022 210.854 96.5011 211.108 96.645C211.362 96.7889 211.662 96.8608 212.009 96.8608C212.445 96.8608 212.811 96.7783 213.107 96.6133C213.403 96.444 213.64 96.2218 213.818 95.9468C213.996 95.6675 214.125 95.3628 214.205 95.0327V93.0586C214.155 92.8343 214.081 92.6058 213.983 92.373C213.886 92.1403 213.753 91.9266 213.583 91.7319C213.418 91.533 213.207 91.3743 212.949 91.2559C212.695 91.1331 212.386 91.0718 212.022 91.0718C211.671 91.0718 211.368 91.1437 211.114 91.2876C210.86 91.4315 210.649 91.6325 210.479 91.8906C210.314 92.1445 210.192 92.4429 210.111 92.7856C210.031 93.1284 209.991 93.5008 209.991 93.9028ZM225.11 95.8135V90.5322H225.872V97.4004H225.142L225.11 95.8135ZM225.25 94.5439L225.643 94.5312C225.643 94.9629 225.592 95.3607 225.491 95.7246C225.389 96.0885 225.23 96.4059 225.015 96.6768C224.799 96.9476 224.52 97.1571 224.177 97.3052C223.834 97.4533 223.421 97.5273 222.939 97.5273C222.605 97.5273 222.298 97.4808 222.019 97.3877C221.744 97.2904 221.507 97.138 221.308 96.9307C221.109 96.7233 220.954 96.4546 220.844 96.1245C220.738 95.7944 220.686 95.3945 220.686 94.9248V90.5322H221.441V94.9375C221.441 95.3057 221.481 95.6125 221.562 95.8579C221.646 96.1034 221.76 96.3001 221.904 96.4482C222.052 96.5964 222.222 96.7021 222.412 96.7656C222.603 96.8291 222.808 96.8608 223.028 96.8608C223.586 96.8608 224.027 96.7529 224.348 96.5371C224.674 96.3213 224.905 96.0378 225.04 95.6865C225.18 95.3311 225.25 94.9502 225.25 94.5439ZM228.997 91.8525V100.041H228.236V90.5322H228.947L228.997 91.8525ZM233.771 93.9028V94.0361C233.771 94.5482 233.712 95.0179 233.593 95.4453C233.475 95.8727 233.303 96.243 233.079 96.5562C232.859 96.8651 232.586 97.1042 232.26 97.2734C231.934 97.4427 231.564 97.5273 231.149 97.5273C230.739 97.5273 230.373 97.4639 230.051 97.3369C229.73 97.21 229.452 97.0301 229.22 96.7974C228.991 96.5604 228.807 96.2853 228.667 95.9722C228.532 95.6548 228.437 95.3078 228.382 94.9312V93.1729C228.445 92.7581 228.549 92.3815 228.693 92.043C228.837 91.7044 229.021 91.4124 229.245 91.167C229.474 90.9215 229.744 90.7332 230.058 90.6021C230.371 90.4709 230.728 90.4053 231.13 90.4053C231.549 90.4053 231.922 90.4878 232.247 90.6528C232.578 90.8136 232.855 91.0485 233.079 91.3574C233.308 91.6621 233.479 92.0303 233.593 92.4619C233.712 92.8893 233.771 93.3696 233.771 93.9028ZM233.009 94.0361V93.9028C233.009 93.5008 232.967 93.1284 232.882 92.7856C232.802 92.4429 232.677 92.1445 232.508 91.8906C232.343 91.6325 232.131 91.4315 231.873 91.2876C231.619 91.1437 231.316 91.0718 230.965 91.0718C230.601 91.0718 230.29 91.1331 230.032 91.2559C229.778 91.3743 229.567 91.533 229.397 91.7319C229.228 91.9266 229.095 92.1403 228.997 92.373C228.9 92.6058 228.828 92.8343 228.782 93.0586V95.0835C228.862 95.4051 228.991 95.7035 229.169 95.9785C229.347 96.2493 229.584 96.4673 229.88 96.6323C230.18 96.7931 230.546 96.8735 230.978 96.8735C231.325 96.8735 231.625 96.8016 231.879 96.6577C232.133 96.5138 232.343 96.3128 232.508 96.0547C232.677 95.7965 232.802 95.4961 232.882 95.1533C232.967 94.8105 233.009 94.4382 233.009 94.0361ZM240.312 96.0674V87.6504H241.074V97.4004H240.363L240.312 96.0674ZM235.545 94.0361V93.9028C235.545 93.3696 235.606 92.8893 235.729 92.4619C235.851 92.0303 236.027 91.6621 236.256 91.3574C236.488 91.0485 236.768 90.8136 237.094 90.6528C237.419 90.4878 237.788 90.4053 238.198 90.4053C238.6 90.4053 238.956 90.4709 239.264 90.6021C239.573 90.7332 239.838 90.9215 240.058 91.167C240.282 91.4124 240.462 91.7044 240.597 92.043C240.737 92.3815 240.839 92.7581 240.902 93.1729V94.8677C240.851 95.257 240.758 95.6146 240.623 95.9404C240.487 96.262 240.308 96.5435 240.083 96.7847C239.859 97.0216 239.588 97.2057 239.271 97.3369C238.958 97.4639 238.596 97.5273 238.185 97.5273C237.779 97.5273 237.413 97.4427 237.087 97.2734C236.761 97.1042 236.484 96.8651 236.256 96.5562C236.027 96.243 235.851 95.8727 235.729 95.4453C235.606 95.0179 235.545 94.5482 235.545 94.0361ZM236.306 93.9028V94.0361C236.306 94.4382 236.347 94.8105 236.427 95.1533C236.507 95.4961 236.63 95.7944 236.795 96.0483C236.96 96.3022 237.17 96.5011 237.424 96.645C237.678 96.7889 237.978 96.8608 238.325 96.8608C238.761 96.8608 239.127 96.7783 239.423 96.6133C239.719 96.444 239.956 96.2218 240.134 95.9468C240.312 95.6675 240.441 95.3628 240.521 95.0327V93.0586C240.47 92.8343 240.396 92.6058 240.299 92.373C240.202 92.1403 240.068 91.9266 239.899 91.7319C239.734 91.533 239.523 91.3743 239.264 91.2559C239.011 91.1331 238.702 91.0718 238.338 91.0718C237.986 91.0718 237.684 91.1437 237.43 91.2876C237.176 91.4315 236.964 91.6325 236.795 91.8906C236.63 92.1445 236.507 92.4429 236.427 92.7856C236.347 93.1284 236.306 93.5008 236.306 93.9028ZM247.64 96.1689V92.627C247.64 92.3011 247.572 92.0197 247.437 91.7827C247.301 91.5457 247.102 91.3638 246.84 91.2368C246.578 91.1099 246.254 91.0464 245.869 91.0464C245.513 91.0464 245.196 91.1099 244.917 91.2368C244.642 91.3595 244.424 91.5267 244.263 91.7383C244.106 91.9456 244.028 92.1763 244.028 92.4302L243.266 92.4238C243.266 92.1657 243.33 91.916 243.457 91.6748C243.584 91.4336 243.763 91.2178 243.996 91.0273C244.229 90.8369 244.506 90.6867 244.828 90.5767C245.154 90.4624 245.511 90.4053 245.901 90.4053C246.391 90.4053 246.823 90.4878 247.195 90.6528C247.572 90.8179 247.866 91.0654 248.078 91.3955C248.289 91.7256 248.395 92.1403 248.395 92.6396V95.9595C248.395 96.1965 248.412 96.4419 248.446 96.6958C248.484 96.9497 248.537 97.1592 248.605 97.3242V97.4004H247.798C247.748 97.248 247.707 97.0576 247.678 96.8291C247.652 96.5964 247.64 96.3763 247.64 96.1689ZM247.818 93.4014L247.83 93.9854H246.339C245.949 93.9854 245.6 94.0213 245.291 94.0933C244.986 94.161 244.728 94.2625 244.517 94.3979C244.305 94.5291 244.142 94.6878 244.028 94.874C243.918 95.0602 243.863 95.2718 243.863 95.5088C243.863 95.7542 243.924 95.9785 244.047 96.1816C244.174 96.3848 244.352 96.5477 244.58 96.6704C244.813 96.7889 245.088 96.8481 245.405 96.8481C245.829 96.8481 246.201 96.7699 246.523 96.6133C246.848 96.4567 247.117 96.2515 247.329 95.9976C247.54 95.7437 247.682 95.4665 247.754 95.166L248.084 95.604C248.029 95.8156 247.928 96.0335 247.779 96.2578C247.636 96.4779 247.447 96.6852 247.214 96.8799C246.982 97.0703 246.707 97.2269 246.389 97.3496C246.076 97.4681 245.721 97.5273 245.323 97.5273C244.874 97.5273 244.483 97.4427 244.149 97.2734C243.818 97.1042 243.56 96.8735 243.374 96.5815C243.192 96.2853 243.101 95.951 243.101 95.5786C243.101 95.2401 243.173 94.9375 243.317 94.6709C243.461 94.4001 243.668 94.1715 243.939 93.9854C244.214 93.7949 244.544 93.651 244.929 93.5537C245.319 93.4521 245.755 93.4014 246.237 93.4014H247.818ZM253.419 90.5322V91.1543H249.979V90.5322H253.419ZM251.242 88.7676H251.997V95.731C251.997 96.0483 252.039 96.2874 252.124 96.4482C252.209 96.609 252.319 96.717 252.454 96.772C252.59 96.827 252.735 96.8545 252.892 96.8545C253.006 96.8545 253.116 96.8481 253.222 96.8354C253.328 96.8185 253.423 96.8016 253.508 96.7847L253.54 97.4258C253.446 97.4554 253.326 97.4787 253.178 97.4956C253.03 97.5168 252.881 97.5273 252.733 97.5273C252.441 97.5273 252.183 97.4744 251.959 97.3687C251.735 97.2586 251.559 97.0724 251.432 96.8101C251.305 96.5435 251.242 96.1816 251.242 95.7246V88.7676ZM258.056 97.5273C257.607 97.5273 257.194 97.4448 256.818 97.2798C256.445 97.1147 256.119 96.882 255.84 96.5815C255.565 96.2811 255.351 95.9256 255.199 95.5151C255.051 95.1004 254.977 94.6476 254.977 94.1567V93.8838C254.977 93.3548 255.055 92.8766 255.212 92.4492C255.368 92.0218 255.584 91.6558 255.859 91.3511C256.134 91.0464 256.447 90.8136 256.799 90.6528C257.154 90.4878 257.527 90.4053 257.916 90.4053C258.352 90.4053 258.739 90.4836 259.077 90.6401C259.416 90.7925 259.7 91.0104 259.928 91.2939C260.161 91.5732 260.336 91.9054 260.455 92.2905C260.573 92.6714 260.633 93.0924 260.633 93.5537V94.0171H255.434V93.3696H259.877V93.2808C259.869 92.8957 259.791 92.536 259.642 92.2017C259.499 91.8631 259.283 91.5881 258.995 91.3765C258.707 91.1649 258.348 91.0591 257.916 91.0591C257.594 91.0591 257.298 91.1268 257.027 91.2622C256.761 91.3976 256.53 91.5923 256.335 91.8462C256.145 92.0959 255.997 92.3942 255.891 92.7412C255.789 93.084 255.739 93.4648 255.739 93.8838V94.1567C255.739 94.5376 255.794 94.8931 255.904 95.2231C256.018 95.549 256.179 95.8368 256.386 96.0864C256.598 96.3361 256.847 96.5308 257.135 96.6704C257.423 96.8101 257.74 96.8799 258.087 96.8799C258.493 96.8799 258.853 96.8058 259.166 96.6577C259.48 96.5054 259.761 96.2663 260.011 95.9404L260.487 96.3086C260.339 96.5286 260.152 96.7318 259.928 96.918C259.708 97.1042 259.444 97.2523 259.135 97.3623C258.826 97.4723 258.466 97.5273 258.056 97.5273ZM268.681 90.5322V91.1543H265.24V90.5322H268.681ZM266.503 88.7676H267.259V95.731C267.259 96.0483 267.301 96.2874 267.386 96.4482C267.47 96.609 267.58 96.717 267.716 96.772C267.851 96.827 267.997 96.8545 268.154 96.8545C268.268 96.8545 268.378 96.8481 268.484 96.8354C268.59 96.8185 268.685 96.8016 268.77 96.7847L268.801 97.4258C268.708 97.4554 268.588 97.4787 268.44 97.4956C268.291 97.5168 268.143 97.5273 267.995 97.5273C267.703 97.5273 267.445 97.4744 267.221 97.3687C266.996 97.2586 266.821 97.0724 266.694 96.8101C266.567 96.5435 266.503 96.1816 266.503 95.7246V88.7676ZM271.419 87.6504V97.4004H270.664V87.6504H271.419ZM271.248 93.541L270.912 93.3506C270.937 92.9443 271.019 92.5635 271.159 92.208C271.299 91.8525 271.487 91.5394 271.724 91.2686C271.965 90.9977 272.247 90.7861 272.568 90.6338C272.894 90.4814 273.254 90.4053 273.647 90.4053C273.99 90.4053 274.297 90.4518 274.568 90.5449C274.839 90.638 275.069 90.7861 275.26 90.9893C275.45 91.1924 275.594 91.4526 275.691 91.77C275.793 92.0874 275.844 92.4746 275.844 92.9316V97.4004H275.082V92.9253C275.082 92.4513 275.016 92.0811 274.885 91.8145C274.754 91.5436 274.568 91.3511 274.327 91.2368C274.085 91.1226 273.8 91.0654 273.47 91.0654C273.106 91.0654 272.786 91.1458 272.511 91.3066C272.24 91.4632 272.012 91.6685 271.826 91.9224C271.644 92.172 271.504 92.4408 271.407 92.7285C271.309 93.012 271.256 93.2829 271.248 93.541ZM280.842 97.5273C280.394 97.5273 279.981 97.4448 279.604 97.2798C279.232 97.1147 278.906 96.882 278.627 96.5815C278.352 96.2811 278.138 95.9256 277.986 95.5151C277.838 95.1004 277.763 94.6476 277.763 94.1567V93.8838C277.763 93.3548 277.842 92.8766 277.998 92.4492C278.155 92.0218 278.371 91.6558 278.646 91.3511C278.921 91.0464 279.234 90.8136 279.585 90.6528C279.941 90.4878 280.313 90.4053 280.702 90.4053C281.138 90.4053 281.526 90.4836 281.864 90.6401C282.203 90.7925 282.486 91.0104 282.715 91.2939C282.947 91.5732 283.123 91.9054 283.241 92.2905C283.36 92.6714 283.419 93.0924 283.419 93.5537V94.0171H278.22V93.3696H282.664V93.2808C282.655 92.8957 282.577 92.536 282.429 92.2017C282.285 91.8631 282.069 91.5881 281.782 91.3765C281.494 91.1649 281.134 91.0591 280.702 91.0591C280.381 91.0591 280.085 91.1268 279.814 91.2622C279.547 91.3976 279.317 91.5923 279.122 91.8462C278.931 92.0959 278.783 92.3942 278.678 92.7412C278.576 93.084 278.525 93.4648 278.525 93.8838V94.1567C278.525 94.5376 278.58 94.8931 278.69 95.2231C278.804 95.549 278.965 95.8368 279.173 96.0864C279.384 96.3361 279.634 96.5308 279.922 96.6704C280.209 96.8101 280.527 96.8799 280.874 96.8799C281.28 96.8799 281.64 96.8058 281.953 96.6577C282.266 96.5054 282.547 96.2663 282.797 95.9404L283.273 96.3086C283.125 96.5286 282.939 96.7318 282.715 96.918C282.495 97.1042 282.23 97.2523 281.921 97.3623C281.612 97.4723 281.253 97.5273 280.842 97.5273ZM292.984 95.6484C292.984 95.4622 292.938 95.2782 292.845 95.0962C292.752 94.9142 292.572 94.7471 292.305 94.5947C292.043 94.4424 291.656 94.3133 291.144 94.2075C290.763 94.1229 290.422 94.0277 290.122 93.9219C289.825 93.8161 289.576 93.6891 289.373 93.541C289.169 93.3929 289.015 93.2152 288.909 93.0078C288.803 92.8005 288.75 92.555 288.75 92.2715C288.75 92.0176 288.806 91.7785 288.916 91.5542C289.03 91.3257 289.191 91.1268 289.398 90.9575C289.61 90.784 289.863 90.6486 290.16 90.5513C290.46 90.4539 290.797 90.4053 291.169 90.4053C291.698 90.4053 292.151 90.4963 292.527 90.6782C292.908 90.856 293.198 91.0993 293.397 91.4082C293.6 91.7171 293.702 92.0662 293.702 92.4556H292.946C292.946 92.2186 292.876 91.9943 292.737 91.7827C292.601 91.5711 292.4 91.3976 292.134 91.2622C291.871 91.1268 291.55 91.0591 291.169 91.0591C290.775 91.0591 290.456 91.1183 290.21 91.2368C289.965 91.3553 289.785 91.5055 289.671 91.6875C289.561 91.8695 289.506 92.0578 289.506 92.2524C289.506 92.4048 289.529 92.5444 289.576 92.6714C289.626 92.7941 289.715 92.9084 289.842 93.0142C289.973 93.12 290.16 93.2194 290.401 93.3125C290.642 93.4056 290.955 93.4966 291.34 93.5854C291.895 93.7082 292.347 93.8584 292.699 94.0361C293.054 94.2096 293.317 94.4255 293.486 94.6836C293.655 94.9375 293.74 95.2464 293.74 95.6104C293.74 95.8939 293.681 96.1541 293.562 96.3911C293.444 96.6239 293.272 96.8249 293.048 96.9941C292.828 97.1634 292.561 97.2946 292.248 97.3877C291.939 97.4808 291.592 97.5273 291.207 97.5273C290.627 97.5273 290.136 97.4321 289.734 97.2417C289.337 97.047 289.034 96.7931 288.827 96.48C288.624 96.1626 288.522 95.8262 288.522 95.4707H289.277C289.303 95.8262 289.415 96.1076 289.614 96.3149C289.813 96.5181 290.056 96.6619 290.344 96.7466C290.636 96.8312 290.924 96.8735 291.207 96.8735C291.596 96.8735 291.922 96.8164 292.185 96.7021C292.447 96.5879 292.646 96.4377 292.781 96.2515C292.917 96.0653 292.984 95.8643 292.984 95.6484ZM298.446 90.5322V91.1543H295.006V90.5322H298.446ZM296.269 88.7676H297.024V95.731C297.024 96.0483 297.067 96.2874 297.151 96.4482C297.236 96.609 297.346 96.717 297.481 96.772C297.617 96.827 297.763 96.8545 297.919 96.8545C298.034 96.8545 298.144 96.8481 298.249 96.8354C298.355 96.8185 298.45 96.8016 298.535 96.7847L298.567 97.4258C298.474 97.4554 298.353 97.4787 298.205 97.4956C298.057 97.5168 297.909 97.5273 297.761 97.5273C297.469 97.5273 297.21 97.4744 296.986 97.3687C296.762 97.2586 296.586 97.0724 296.459 96.8101C296.332 96.5435 296.269 96.1816 296.269 95.7246V88.7676ZM304.606 96.1689V92.627C304.606 92.3011 304.538 92.0197 304.403 91.7827C304.268 91.5457 304.069 91.3638 303.806 91.2368C303.544 91.1099 303.22 91.0464 302.835 91.0464C302.48 91.0464 302.162 91.1099 301.883 91.2368C301.608 91.3595 301.39 91.5267 301.229 91.7383C301.073 91.9456 300.994 92.1763 300.994 92.4302L300.233 92.4238C300.233 92.1657 300.296 91.916 300.423 91.6748C300.55 91.4336 300.73 91.2178 300.963 91.0273C301.195 90.8369 301.473 90.6867 301.794 90.5767C302.12 90.4624 302.478 90.4053 302.867 90.4053C303.358 90.4053 303.789 90.4878 304.162 90.6528C304.538 90.8179 304.833 91.0654 305.044 91.3955C305.256 91.7256 305.362 92.1403 305.362 92.6396V95.9595C305.362 96.1965 305.378 96.4419 305.412 96.6958C305.45 96.9497 305.503 97.1592 305.571 97.3242V97.4004H304.765C304.714 97.248 304.674 97.0576 304.644 96.8291C304.619 96.5964 304.606 96.3763 304.606 96.1689ZM304.784 93.4014L304.797 93.9854H303.305C302.916 93.9854 302.566 94.0213 302.258 94.0933C301.953 94.161 301.695 94.2625 301.483 94.3979C301.272 94.5291 301.109 94.6878 300.994 94.874C300.884 95.0602 300.829 95.2718 300.829 95.5088C300.829 95.7542 300.891 95.9785 301.013 96.1816C301.14 96.3848 301.318 96.5477 301.547 96.6704C301.779 96.7889 302.054 96.8481 302.372 96.8481C302.795 96.8481 303.167 96.7699 303.489 96.6133C303.815 96.4567 304.084 96.2515 304.295 95.9976C304.507 95.7437 304.648 95.4665 304.72 95.166L305.051 95.604C304.995 95.8156 304.894 96.0335 304.746 96.2578C304.602 96.4779 304.414 96.6852 304.181 96.8799C303.948 97.0703 303.673 97.2269 303.356 97.3496C303.043 97.4681 302.687 97.5273 302.289 97.5273C301.841 97.5273 301.449 97.4427 301.115 97.2734C300.785 97.1042 300.527 96.8735 300.341 96.5815C300.159 96.2853 300.068 95.951 300.068 95.5786C300.068 95.2401 300.14 94.9375 300.283 94.6709C300.427 94.4001 300.635 94.1715 300.905 93.9854C301.181 93.7949 301.511 93.651 301.896 93.5537C302.285 93.4521 302.721 93.4014 303.203 93.4014H304.784ZM310.385 90.5322V91.1543H306.945V90.5322H310.385ZM308.208 88.7676H308.963V95.731C308.963 96.0483 309.006 96.2874 309.09 96.4482C309.175 96.609 309.285 96.717 309.42 96.772C309.556 96.827 309.702 96.8545 309.858 96.8545C309.973 96.8545 310.083 96.8481 310.189 96.8354C310.294 96.8185 310.39 96.8016 310.474 96.7847L310.506 97.4258C310.413 97.4554 310.292 97.4787 310.144 97.4956C309.996 97.5168 309.848 97.5273 309.7 97.5273C309.408 97.5273 309.15 97.4744 308.925 97.3687C308.701 97.2586 308.525 97.0724 308.399 96.8101C308.272 96.5435 308.208 96.1816 308.208 95.7246V88.7676ZM315.022 97.5273C314.573 97.5273 314.161 97.4448 313.784 97.2798C313.412 97.1147 313.086 96.882 312.807 96.5815C312.532 96.2811 312.318 95.9256 312.165 95.5151C312.017 95.1004 311.943 94.6476 311.943 94.1567V93.8838C311.943 93.3548 312.022 92.8766 312.178 92.4492C312.335 92.0218 312.551 91.6558 312.826 91.3511C313.101 91.0464 313.414 90.8136 313.765 90.6528C314.121 90.4878 314.493 90.4053 314.882 90.4053C315.318 90.4053 315.705 90.4836 316.044 90.6401C316.382 90.7925 316.666 91.0104 316.894 91.2939C317.127 91.5732 317.303 91.9054 317.421 92.2905C317.54 92.6714 317.599 93.0924 317.599 93.5537V94.0171H312.4V93.3696H316.844V93.2808C316.835 92.8957 316.757 92.536 316.609 92.2017C316.465 91.8631 316.249 91.5881 315.961 91.3765C315.674 91.1649 315.314 91.0591 314.882 91.0591C314.561 91.0591 314.264 91.1268 313.994 91.2622C313.727 91.3976 313.496 91.5923 313.302 91.8462C313.111 92.0959 312.963 92.3942 312.857 92.7412C312.756 93.084 312.705 93.4648 312.705 93.8838V94.1567C312.705 94.5376 312.76 94.8931 312.87 95.2231C312.984 95.549 313.145 95.8368 313.352 96.0864C313.564 96.3361 313.814 96.5308 314.102 96.6704C314.389 96.8101 314.707 96.8799 315.054 96.8799C315.46 96.8799 315.82 96.8058 316.133 96.6577C316.446 96.5054 316.727 96.2663 316.977 95.9404L317.453 96.3086C317.305 96.5286 317.119 96.7318 316.894 96.918C316.674 97.1042 316.41 97.2523 316.101 97.3623C315.792 97.4723 315.432 97.5273 315.022 97.5273ZM143.746 104.65H144.507V113.067L144.457 114.4H143.746V104.65ZM149.287 110.903V111.036C149.287 111.548 149.228 112.018 149.109 112.445C148.991 112.873 148.82 113.243 148.595 113.556C148.371 113.865 148.096 114.104 147.77 114.273C147.448 114.443 147.078 114.527 146.659 114.527C146.249 114.527 145.885 114.464 145.567 114.337C145.25 114.206 144.979 114.022 144.755 113.785C144.531 113.543 144.351 113.262 144.215 112.94C144.08 112.615 143.985 112.257 143.93 111.868V110.173C143.993 109.758 144.095 109.382 144.234 109.043C144.374 108.704 144.554 108.412 144.774 108.167C144.998 107.922 145.265 107.733 145.574 107.602C145.887 107.471 146.245 107.405 146.647 107.405C147.065 107.405 147.438 107.488 147.764 107.653C148.094 107.814 148.371 108.049 148.595 108.357C148.82 108.662 148.991 109.03 149.109 109.462C149.228 109.889 149.287 110.37 149.287 110.903ZM148.519 111.036V110.903C148.519 110.501 148.481 110.128 148.405 109.786C148.329 109.443 148.208 109.145 148.043 108.891C147.882 108.632 147.675 108.431 147.421 108.288C147.167 108.144 146.862 108.072 146.507 108.072C146.143 108.072 145.832 108.133 145.574 108.256C145.32 108.374 145.108 108.533 144.939 108.732C144.774 108.927 144.643 109.14 144.545 109.373C144.448 109.606 144.376 109.834 144.33 110.059V112.033C144.402 112.35 144.526 112.648 144.704 112.928C144.882 113.207 145.121 113.433 145.421 113.607C145.722 113.776 146.088 113.861 146.52 113.861C146.867 113.861 147.165 113.789 147.415 113.645C147.668 113.501 147.876 113.302 148.037 113.048C148.202 112.794 148.322 112.496 148.398 112.153C148.479 111.811 148.519 111.438 148.519 111.036ZM155.536 113.169V109.627C155.536 109.301 155.468 109.02 155.333 108.783C155.197 108.546 154.999 108.364 154.736 108.237C154.474 108.11 154.15 108.046 153.765 108.046C153.41 108.046 153.092 108.11 152.813 108.237C152.538 108.36 152.32 108.527 152.159 108.738C152.003 108.946 151.924 109.176 151.924 109.43L151.162 109.424C151.162 109.166 151.226 108.916 151.353 108.675C151.48 108.434 151.66 108.218 151.892 108.027C152.125 107.837 152.402 107.687 152.724 107.577C153.05 107.462 153.407 107.405 153.797 107.405C154.288 107.405 154.719 107.488 155.092 107.653C155.468 107.818 155.762 108.065 155.974 108.396C156.186 108.726 156.291 109.14 156.291 109.64V112.959C156.291 113.196 156.308 113.442 156.342 113.696C156.38 113.95 156.433 114.159 156.501 114.324V114.4H155.695C155.644 114.248 155.604 114.058 155.574 113.829C155.549 113.596 155.536 113.376 155.536 113.169ZM155.714 110.401L155.726 110.985H154.235C153.845 110.985 153.496 111.021 153.187 111.093C152.883 111.161 152.625 111.263 152.413 111.398C152.201 111.529 152.038 111.688 151.924 111.874C151.814 112.06 151.759 112.272 151.759 112.509C151.759 112.754 151.821 112.979 151.943 113.182C152.07 113.385 152.248 113.548 152.476 113.67C152.709 113.789 152.984 113.848 153.302 113.848C153.725 113.848 154.097 113.77 154.419 113.613C154.745 113.457 155.013 113.251 155.225 112.998C155.437 112.744 155.578 112.466 155.65 112.166L155.98 112.604C155.925 112.816 155.824 113.034 155.676 113.258C155.532 113.478 155.343 113.685 155.111 113.88C154.878 114.07 154.603 114.227 154.286 114.35C153.972 114.468 153.617 114.527 153.219 114.527C152.771 114.527 152.379 114.443 152.045 114.273C151.715 114.104 151.457 113.874 151.27 113.582C151.088 113.285 150.997 112.951 150.997 112.579C150.997 112.24 151.069 111.938 151.213 111.671C151.357 111.4 151.565 111.172 151.835 110.985C152.11 110.795 152.44 110.651 152.826 110.554C153.215 110.452 153.651 110.401 154.133 110.401H155.714ZM162.832 112.648C162.832 112.462 162.786 112.278 162.693 112.096C162.6 111.914 162.42 111.747 162.153 111.595C161.891 111.442 161.504 111.313 160.991 111.208C160.611 111.123 160.27 111.028 159.969 110.922C159.673 110.816 159.424 110.689 159.22 110.541C159.017 110.393 158.863 110.215 158.757 110.008C158.651 109.8 158.598 109.555 158.598 109.271C158.598 109.018 158.653 108.778 158.763 108.554C158.878 108.326 159.039 108.127 159.246 107.958C159.457 107.784 159.711 107.649 160.008 107.551C160.308 107.454 160.644 107.405 161.017 107.405C161.546 107.405 161.999 107.496 162.375 107.678C162.756 107.856 163.046 108.099 163.245 108.408C163.448 108.717 163.55 109.066 163.55 109.456H162.794C162.794 109.219 162.724 108.994 162.585 108.783C162.449 108.571 162.248 108.398 161.982 108.262C161.719 108.127 161.398 108.059 161.017 108.059C160.623 108.059 160.304 108.118 160.058 108.237C159.813 108.355 159.633 108.506 159.519 108.688C159.409 108.869 159.354 109.058 159.354 109.252C159.354 109.405 159.377 109.544 159.424 109.671C159.474 109.794 159.563 109.908 159.69 110.014C159.821 110.12 160.008 110.219 160.249 110.312C160.49 110.406 160.803 110.497 161.188 110.585C161.743 110.708 162.195 110.858 162.547 111.036C162.902 111.21 163.164 111.425 163.334 111.684C163.503 111.938 163.588 112.246 163.588 112.61C163.588 112.894 163.528 113.154 163.41 113.391C163.291 113.624 163.12 113.825 162.896 113.994C162.676 114.163 162.409 114.295 162.096 114.388C161.787 114.481 161.44 114.527 161.055 114.527C160.475 114.527 159.984 114.432 159.582 114.242C159.184 114.047 158.882 113.793 158.675 113.48C158.471 113.163 158.37 112.826 158.37 112.471H159.125C159.151 112.826 159.263 113.108 159.462 113.315C159.661 113.518 159.904 113.662 160.192 113.747C160.484 113.831 160.771 113.874 161.055 113.874C161.444 113.874 161.77 113.816 162.032 113.702C162.295 113.588 162.494 113.438 162.629 113.251C162.765 113.065 162.832 112.864 162.832 112.648ZM168.351 114.527C167.903 114.527 167.49 114.445 167.113 114.28C166.741 114.115 166.415 113.882 166.136 113.582C165.861 113.281 165.647 112.926 165.495 112.515C165.347 112.1 165.273 111.648 165.273 111.157V110.884C165.273 110.355 165.351 109.877 165.507 109.449C165.664 109.022 165.88 108.656 166.155 108.351C166.43 108.046 166.743 107.814 167.094 107.653C167.45 107.488 167.822 107.405 168.212 107.405C168.647 107.405 169.035 107.484 169.373 107.64C169.712 107.792 169.995 108.01 170.224 108.294C170.456 108.573 170.632 108.905 170.751 109.291C170.869 109.671 170.928 110.092 170.928 110.554V111.017H165.73V110.37H170.173V110.281C170.165 109.896 170.086 109.536 169.938 109.202C169.794 108.863 169.578 108.588 169.291 108.376C169.003 108.165 168.643 108.059 168.212 108.059C167.89 108.059 167.594 108.127 167.323 108.262C167.056 108.398 166.826 108.592 166.631 108.846C166.441 109.096 166.292 109.394 166.187 109.741C166.085 110.084 166.034 110.465 166.034 110.884V111.157C166.034 111.538 166.089 111.893 166.199 112.223C166.314 112.549 166.474 112.837 166.682 113.086C166.893 113.336 167.143 113.531 167.431 113.67C167.719 113.81 168.036 113.88 168.383 113.88C168.789 113.88 169.149 113.806 169.462 113.658C169.775 113.505 170.057 113.266 170.306 112.94L170.782 113.309C170.634 113.529 170.448 113.732 170.224 113.918C170.004 114.104 169.739 114.252 169.43 114.362C169.121 114.472 168.762 114.527 168.351 114.527ZM177.279 113.067V104.65H178.041V114.4H177.33L177.279 113.067ZM172.512 111.036V110.903C172.512 110.37 172.573 109.889 172.696 109.462C172.818 109.03 172.994 108.662 173.223 108.357C173.455 108.049 173.735 107.814 174.061 107.653C174.386 107.488 174.755 107.405 175.165 107.405C175.567 107.405 175.923 107.471 176.231 107.602C176.54 107.733 176.805 107.922 177.025 108.167C177.249 108.412 177.429 108.704 177.564 109.043C177.704 109.382 177.806 109.758 177.869 110.173V111.868C177.818 112.257 177.725 112.615 177.59 112.94C177.454 113.262 177.275 113.543 177.05 113.785C176.826 114.022 176.555 114.206 176.238 114.337C175.925 114.464 175.563 114.527 175.152 114.527C174.746 114.527 174.38 114.443 174.054 114.273C173.728 114.104 173.451 113.865 173.223 113.556C172.994 113.243 172.818 112.873 172.696 112.445C172.573 112.018 172.512 111.548 172.512 111.036ZM173.273 110.903V111.036C173.273 111.438 173.314 111.811 173.394 112.153C173.474 112.496 173.597 112.794 173.762 113.048C173.927 113.302 174.137 113.501 174.391 113.645C174.645 113.789 174.945 113.861 175.292 113.861C175.728 113.861 176.094 113.778 176.39 113.613C176.686 113.444 176.923 113.222 177.101 112.947C177.279 112.667 177.408 112.363 177.488 112.033V110.059C177.437 109.834 177.363 109.606 177.266 109.373C177.169 109.14 177.035 108.927 176.866 108.732C176.701 108.533 176.49 108.374 176.231 108.256C175.978 108.133 175.669 108.072 175.305 108.072C174.953 108.072 174.651 108.144 174.397 108.288C174.143 108.431 173.931 108.632 173.762 108.891C173.597 109.145 173.474 109.443 173.394 109.786C173.314 110.128 173.273 110.501 173.273 110.903ZM183.575 111.074V110.865C183.575 110.365 183.647 109.904 183.791 109.481C183.935 109.058 184.14 108.692 184.406 108.383C184.677 108.074 185.001 107.835 185.378 107.666C185.754 107.492 186.173 107.405 186.634 107.405C187.1 107.405 187.521 107.492 187.898 107.666C188.274 107.835 188.598 108.074 188.869 108.383C189.14 108.692 189.347 109.058 189.491 109.481C189.635 109.904 189.707 110.365 189.707 110.865V111.074C189.707 111.574 189.635 112.035 189.491 112.458C189.347 112.877 189.14 113.241 188.869 113.55C188.602 113.859 188.281 114.1 187.904 114.273C187.527 114.443 187.108 114.527 186.647 114.527C186.182 114.527 185.761 114.443 185.384 114.273C185.007 114.1 184.684 113.859 184.413 113.55C184.142 113.241 183.935 112.877 183.791 112.458C183.647 112.035 183.575 111.574 183.575 111.074ZM184.33 110.865V111.074C184.33 111.451 184.381 111.808 184.483 112.147C184.584 112.481 184.732 112.78 184.927 113.042C185.122 113.3 185.363 113.503 185.651 113.651C185.938 113.799 186.271 113.874 186.647 113.874C187.02 113.874 187.348 113.799 187.631 113.651C187.919 113.503 188.16 113.3 188.355 113.042C188.549 112.78 188.695 112.481 188.793 112.147C188.894 111.808 188.945 111.451 188.945 111.074V110.865C188.945 110.492 188.894 110.139 188.793 109.805C188.695 109.47 188.547 109.172 188.348 108.91C188.154 108.647 187.912 108.44 187.625 108.288C187.337 108.135 187.007 108.059 186.634 108.059C186.262 108.059 185.932 108.135 185.644 108.288C185.361 108.44 185.12 108.647 184.921 108.91C184.726 109.172 184.578 109.47 184.476 109.805C184.379 110.139 184.33 110.492 184.33 110.865ZM192.426 108.999V114.4H191.671V107.532H192.395L192.426 108.999ZM192.255 110.541L191.919 110.351C191.944 109.944 192.026 109.563 192.166 109.208C192.306 108.853 192.494 108.539 192.731 108.269C192.972 107.998 193.254 107.786 193.575 107.634C193.901 107.481 194.261 107.405 194.654 107.405C194.997 107.405 195.304 107.452 195.575 107.545C195.846 107.638 196.076 107.786 196.267 107.989C196.457 108.192 196.601 108.453 196.698 108.77C196.8 109.087 196.851 109.475 196.851 109.932V114.4H196.089V109.925C196.089 109.451 196.023 109.081 195.892 108.814C195.761 108.544 195.575 108.351 195.334 108.237C195.092 108.123 194.807 108.065 194.477 108.065C194.113 108.065 193.793 108.146 193.518 108.307C193.247 108.463 193.019 108.668 192.833 108.922C192.651 109.172 192.511 109.441 192.414 109.729C192.316 110.012 192.263 110.283 192.255 110.541ZM207.171 112.813V107.532H207.933V114.4H207.203L207.171 112.813ZM207.311 111.544L207.704 111.531C207.704 111.963 207.654 112.361 207.552 112.725C207.45 113.089 207.292 113.406 207.076 113.677C206.86 113.948 206.581 114.157 206.238 114.305C205.895 114.453 205.483 114.527 205 114.527C204.666 114.527 204.359 114.481 204.08 114.388C203.805 114.29 203.568 114.138 203.369 113.931C203.17 113.723 203.016 113.455 202.906 113.125C202.8 112.794 202.747 112.395 202.747 111.925V107.532H203.502V111.938C203.502 112.306 203.542 112.612 203.623 112.858C203.707 113.103 203.822 113.3 203.966 113.448C204.114 113.596 204.283 113.702 204.473 113.766C204.664 113.829 204.869 113.861 205.089 113.861C205.648 113.861 206.088 113.753 206.409 113.537C206.735 113.321 206.966 113.038 207.101 112.687C207.241 112.331 207.311 111.95 207.311 111.544ZM214.423 112.648C214.423 112.462 214.376 112.278 214.283 112.096C214.19 111.914 214.01 111.747 213.744 111.595C213.481 111.442 213.094 111.313 212.582 111.208C212.201 111.123 211.861 111.028 211.56 110.922C211.264 110.816 211.014 110.689 210.811 110.541C210.608 110.393 210.454 110.215 210.348 110.008C210.242 109.8 210.189 109.555 210.189 109.271C210.189 109.018 210.244 108.778 210.354 108.554C210.468 108.326 210.629 108.127 210.837 107.958C211.048 107.784 211.302 107.649 211.598 107.551C211.899 107.454 212.235 107.405 212.608 107.405C213.137 107.405 213.589 107.496 213.966 107.678C214.347 107.856 214.637 108.099 214.836 108.408C215.039 108.717 215.14 109.066 215.14 109.456H214.385C214.385 109.219 214.315 108.994 214.175 108.783C214.04 108.571 213.839 108.398 213.572 108.262C213.31 108.127 212.988 108.059 212.608 108.059C212.214 108.059 211.895 108.118 211.649 108.237C211.404 108.355 211.224 108.506 211.11 108.688C210.999 108.869 210.944 109.058 210.944 109.252C210.944 109.405 210.968 109.544 211.014 109.671C211.065 109.794 211.154 109.908 211.281 110.014C211.412 110.12 211.598 110.219 211.839 110.312C212.081 110.406 212.394 110.497 212.779 110.585C213.333 110.708 213.786 110.858 214.137 111.036C214.493 111.21 214.755 111.425 214.924 111.684C215.094 111.938 215.178 112.246 215.178 112.61C215.178 112.894 215.119 113.154 215.001 113.391C214.882 113.624 214.711 113.825 214.486 113.994C214.266 114.163 214 114.295 213.687 114.388C213.378 114.481 213.031 114.527 212.646 114.527C212.066 114.527 211.575 114.432 211.173 114.242C210.775 114.047 210.473 113.793 210.265 113.48C210.062 113.163 209.961 112.826 209.961 112.471H210.716C210.741 112.826 210.853 113.108 211.052 113.315C211.251 113.518 211.495 113.662 211.782 113.747C212.074 113.831 212.362 113.874 212.646 113.874C213.035 113.874 213.361 113.816 213.623 113.702C213.886 113.588 214.084 113.438 214.22 113.251C214.355 113.065 214.423 112.864 214.423 112.648ZM219.942 114.527C219.493 114.527 219.081 114.445 218.704 114.28C218.332 114.115 218.006 113.882 217.727 113.582C217.451 113.281 217.238 112.926 217.085 112.515C216.937 112.1 216.863 111.648 216.863 111.157V110.884C216.863 110.355 216.942 109.877 217.098 109.449C217.255 109.022 217.471 108.656 217.746 108.351C218.021 108.046 218.334 107.814 218.685 107.653C219.041 107.488 219.413 107.405 219.802 107.405C220.238 107.405 220.625 107.484 220.964 107.64C221.302 107.792 221.586 108.01 221.814 108.294C222.047 108.573 222.223 108.905 222.341 109.291C222.46 109.671 222.519 110.092 222.519 110.554V111.017H217.32V110.37H221.764V110.281C221.755 109.896 221.677 109.536 221.529 109.202C221.385 108.863 221.169 108.588 220.881 108.376C220.594 108.165 220.234 108.059 219.802 108.059C219.481 108.059 219.184 108.127 218.914 108.262C218.647 108.398 218.416 108.592 218.222 108.846C218.031 109.096 217.883 109.394 217.777 109.741C217.676 110.084 217.625 110.465 217.625 110.884V111.157C217.625 111.538 217.68 111.893 217.79 112.223C217.904 112.549 218.065 112.837 218.272 113.086C218.484 113.336 218.734 113.531 219.021 113.67C219.309 113.81 219.627 113.88 219.974 113.88C220.38 113.88 220.74 113.806 221.053 113.658C221.366 113.505 221.647 113.266 221.897 112.94L222.373 113.309C222.225 113.529 222.039 113.732 221.814 113.918C221.594 114.104 221.33 114.252 221.021 114.362C220.712 114.472 220.352 114.527 219.942 114.527ZM225.162 108.668V114.4H224.407V107.532H225.143L225.162 108.668ZM227.594 107.481L227.575 108.18C227.49 108.167 227.407 108.156 227.327 108.148C227.247 108.139 227.16 108.135 227.067 108.135C226.737 108.135 226.447 108.197 226.197 108.319C225.952 108.438 225.744 108.605 225.575 108.821C225.406 109.032 225.277 109.282 225.188 109.57C225.099 109.853 225.048 110.158 225.036 110.484L224.756 110.592C224.756 110.143 224.803 109.726 224.896 109.341C224.989 108.956 225.131 108.62 225.321 108.332C225.516 108.04 225.759 107.814 226.051 107.653C226.347 107.488 226.694 107.405 227.092 107.405C227.189 107.405 227.285 107.414 227.378 107.431C227.475 107.443 227.547 107.46 227.594 107.481ZM233.585 107.532V114.4H232.83V107.532H233.585ZM232.696 105.545C232.696 105.402 232.741 105.281 232.83 105.184C232.923 105.082 233.05 105.031 233.211 105.031C233.371 105.031 233.498 105.082 233.591 105.184C233.689 105.281 233.737 105.402 233.737 105.545C233.737 105.685 233.689 105.806 233.591 105.907C233.498 106.005 233.371 106.053 233.211 106.053C233.05 106.053 232.923 106.005 232.83 105.907C232.741 105.806 232.696 105.685 232.696 105.545ZM236.806 108.999V114.4H236.051V107.532H236.774L236.806 108.999ZM236.635 110.541L236.298 110.351C236.324 109.944 236.406 109.563 236.546 109.208C236.685 108.853 236.874 108.539 237.111 108.269C237.352 107.998 237.633 107.786 237.955 107.634C238.281 107.481 238.641 107.405 239.034 107.405C239.377 107.405 239.684 107.452 239.955 107.545C240.225 107.638 240.456 107.786 240.646 107.989C240.837 108.192 240.981 108.453 241.078 108.77C241.18 109.087 241.23 109.475 241.23 109.932V114.4H240.469V109.925C240.469 109.451 240.403 109.081 240.272 108.814C240.141 108.544 239.955 108.351 239.713 108.237C239.472 108.123 239.186 108.065 238.856 108.065C238.492 108.065 238.173 108.146 237.898 108.307C237.627 108.463 237.399 108.668 237.212 108.922C237.03 109.172 236.891 109.441 236.793 109.729C236.696 110.012 236.643 110.283 236.635 110.541ZM246.184 107.532V108.154H242.744V107.532H246.184ZM244.007 105.768H244.762V112.731C244.762 113.048 244.805 113.287 244.889 113.448C244.974 113.609 245.084 113.717 245.22 113.772C245.355 113.827 245.501 113.854 245.658 113.854C245.772 113.854 245.882 113.848 245.988 113.835C246.093 113.819 246.189 113.802 246.273 113.785L246.305 114.426C246.212 114.455 246.091 114.479 245.943 114.496C245.795 114.517 245.647 114.527 245.499 114.527C245.207 114.527 244.949 114.474 244.724 114.369C244.5 114.259 244.325 114.072 244.198 113.81C244.071 113.543 244.007 113.182 244.007 112.725V105.768ZM250.821 114.527C250.372 114.527 249.96 114.445 249.583 114.28C249.211 114.115 248.885 113.882 248.606 113.582C248.331 113.281 248.117 112.926 247.965 112.515C247.816 112.1 247.742 111.648 247.742 111.157V110.884C247.742 110.355 247.821 109.877 247.977 109.449C248.134 109.022 248.35 108.656 248.625 108.351C248.9 108.046 249.213 107.814 249.564 107.653C249.92 107.488 250.292 107.405 250.681 107.405C251.117 107.405 251.504 107.484 251.843 107.64C252.181 107.792 252.465 108.01 252.694 108.294C252.926 108.573 253.102 108.905 253.22 109.291C253.339 109.671 253.398 110.092 253.398 110.554V111.017H248.199V110.37H252.643V110.281C252.634 109.896 252.556 109.536 252.408 109.202C252.264 108.863 252.048 108.588 251.76 108.376C251.473 108.165 251.113 108.059 250.681 108.059C250.36 108.059 250.063 108.127 249.793 108.262C249.526 108.398 249.295 108.592 249.101 108.846C248.91 109.096 248.762 109.394 248.656 109.741C248.555 110.084 248.504 110.465 248.504 110.884V111.157C248.504 111.538 248.559 111.893 248.669 112.223C248.783 112.549 248.944 112.837 249.152 113.086C249.363 113.336 249.613 113.531 249.901 113.67C250.188 113.81 250.506 113.88 250.853 113.88C251.259 113.88 251.619 113.806 251.932 113.658C252.245 113.505 252.526 113.266 252.776 112.94L253.252 113.309C253.104 113.529 252.918 113.732 252.694 113.918C252.473 114.104 252.209 114.252 251.9 114.362C251.591 114.472 251.231 114.527 250.821 114.527ZM256.042 108.999V114.4H255.286V107.532H256.01L256.042 108.999ZM255.87 110.541L255.534 110.351C255.559 109.944 255.642 109.563 255.781 109.208C255.921 108.853 256.109 108.539 256.346 108.269C256.587 107.998 256.869 107.786 257.19 107.634C257.516 107.481 257.876 107.405 258.27 107.405C258.612 107.405 258.919 107.452 259.19 107.545C259.461 107.638 259.691 107.786 259.882 107.989C260.072 108.192 260.216 108.453 260.313 108.77C260.415 109.087 260.466 109.475 260.466 109.932V114.4H259.704V109.925C259.704 109.451 259.639 109.081 259.507 108.814C259.376 108.544 259.19 108.351 258.949 108.237C258.708 108.123 258.422 108.065 258.092 108.065C257.728 108.065 257.408 108.146 257.133 108.307C256.862 108.463 256.634 108.668 256.448 108.922C256.266 109.172 256.126 109.441 256.029 109.729C255.931 110.012 255.879 110.283 255.87 110.541ZM265.42 107.532V108.154H261.979V107.532H265.42ZM263.243 105.768H263.998V112.731C263.998 113.048 264.04 113.287 264.125 113.448C264.21 113.609 264.32 113.717 264.455 113.772C264.59 113.827 264.736 113.854 264.893 113.854C265.007 113.854 265.117 113.848 265.223 113.835C265.329 113.819 265.424 113.802 265.509 113.785L265.54 114.426C265.447 114.455 265.327 114.479 265.179 114.496C265.03 114.517 264.882 114.527 264.734 114.527C264.442 114.527 264.184 114.474 263.96 114.369C263.736 114.259 263.56 114.072 263.433 113.81C263.306 113.543 263.243 113.182 263.243 112.725V105.768ZM268.247 107.532V114.4H267.492V107.532H268.247ZM267.359 105.545C267.359 105.402 267.403 105.281 267.492 105.184C267.585 105.082 267.712 105.031 267.873 105.031C268.034 105.031 268.161 105.082 268.254 105.184C268.351 105.281 268.4 105.402 268.4 105.545C268.4 105.685 268.351 105.806 268.254 105.907C268.161 106.005 268.034 106.053 267.873 106.053C267.712 106.053 267.585 106.005 267.492 105.907C267.403 105.806 267.359 105.685 267.359 105.545ZM270.294 111.074V110.865C270.294 110.365 270.366 109.904 270.51 109.481C270.654 109.058 270.859 108.692 271.126 108.383C271.396 108.074 271.72 107.835 272.097 107.666C272.473 107.492 272.892 107.405 273.354 107.405C273.819 107.405 274.24 107.492 274.617 107.666C274.993 107.835 275.317 108.074 275.588 108.383C275.859 108.692 276.066 109.058 276.21 109.481C276.354 109.904 276.426 110.365 276.426 110.865V111.074C276.426 111.574 276.354 112.035 276.21 112.458C276.066 112.877 275.859 113.241 275.588 113.55C275.321 113.859 275 114.1 274.623 114.273C274.247 114.443 273.828 114.527 273.366 114.527C272.901 114.527 272.48 114.443 272.103 114.273C271.726 114.1 271.403 113.859 271.132 113.55C270.861 113.241 270.654 112.877 270.51 112.458C270.366 112.035 270.294 111.574 270.294 111.074ZM271.049 110.865V111.074C271.049 111.451 271.1 111.808 271.202 112.147C271.303 112.481 271.451 112.78 271.646 113.042C271.841 113.3 272.082 113.503 272.37 113.651C272.657 113.799 272.99 113.874 273.366 113.874C273.739 113.874 274.067 113.799 274.35 113.651C274.638 113.503 274.879 113.3 275.074 113.042C275.268 112.78 275.414 112.481 275.512 112.147C275.613 111.808 275.664 111.451 275.664 111.074V110.865C275.664 110.492 275.613 110.139 275.512 109.805C275.414 109.47 275.266 109.172 275.067 108.91C274.873 108.647 274.632 108.44 274.344 108.288C274.056 108.135 273.726 108.059 273.354 108.059C272.981 108.059 272.651 108.135 272.363 108.288C272.08 108.44 271.839 108.647 271.64 108.91C271.445 109.172 271.297 109.47 271.195 109.805C271.098 110.139 271.049 110.492 271.049 110.865ZM279.145 108.999V114.4H278.39V107.532H279.114L279.145 108.999ZM278.974 110.541L278.638 110.351C278.663 109.944 278.746 109.563 278.885 109.208C279.025 108.853 279.213 108.539 279.45 108.269C279.691 107.998 279.973 107.786 280.294 107.634C280.62 107.481 280.98 107.405 281.374 107.405C281.716 107.405 282.023 107.452 282.294 107.545C282.565 107.638 282.795 107.786 282.986 107.989C283.176 108.192 283.32 108.453 283.417 108.77C283.519 109.087 283.57 109.475 283.57 109.932V114.4H282.808V109.925C282.808 109.451 282.742 109.081 282.611 108.814C282.48 108.544 282.294 108.351 282.053 108.237C281.811 108.123 281.526 108.065 281.196 108.065C280.832 108.065 280.512 108.146 280.237 108.307C279.966 108.463 279.738 108.668 279.552 108.922C279.37 109.172 279.23 109.441 279.133 109.729C279.035 110.012 278.983 110.283 278.974 110.541Z" fill="#434F54"/>
<path d="M66.1514 145.979C66.1514 139.351 71.524 133.979 78.1514 133.979H349.151C355.779 133.979 361.151 139.351 361.151 145.979V479.058C361.151 485.685 355.779 491.058 349.151 491.058H78.1514C71.524 491.058 66.1514 485.685 66.1514 479.058V145.979Z" fill="#F1F4F4"/>
<rect x="133.151" y="150.479" width="212" height="28" rx="14" stroke="#D3DDDE"/>
<path fill-rule="evenodd" clip-rule="evenodd" d="M92.7236 165.286L100.25 165.286L96.962 168.575C96.6993 168.837 96.6993 169.269 96.962 169.531C97.2248 169.794 97.6494 169.794 97.9122 169.531L102.353 165.091C102.616 164.828 102.616 164.404 102.353 164.141L97.9122 159.7C97.6494 159.437 97.2248 159.437 96.962 159.7C96.6993 159.963 96.6993 160.388 96.962 160.65L100.25 163.939L92.7236 163.939C92.353 163.939 92.0498 164.242 92.0498 164.612C92.0498 164.983 92.353 165.286 92.7236 165.286Z" fill="#D3DDDE"/>
<rect x="82.1514" y="199.479" width="65" height="36" rx="2" fill="#D3DDDE"/>
<rect x="153.151" y="216.479" width="192" height="19" rx="2" fill="#D3DDDE"/>
<rect x="153.151" y="199.479" width="77" height="13" rx="2" fill="#D3DDDE"/>
<line opacity="0.5" x1="82.1514" y1="190.979" x2="345.151" y2="190.979" stroke="#D3DDDE"/>
<rect x="82.1514" y="305.479" width="65" height="36" rx="2" fill="#D3DDDE"/>
<rect x="153.151" y="322.479" width="192" height="19" rx="2" fill="#D3DDDE"/>
<rect x="153.151" y="305.479" width="77" height="13" rx="2" fill="#D3DDDE"/>
<line opacity="0.5" x1="82.1514" y1="296.979" x2="345.151" y2="296.979" stroke="#D3DDDE"/>
<rect x="82.1514" y="358.479" width="65" height="36" rx="2" fill="#D3DDDE"/>
<rect x="153.151" y="375.479" width="192" height="19" rx="2" fill="#D3DDDE"/>
<rect x="153.151" y="358.479" width="77" height="13" rx="2" fill="#D3DDDE"/>
<line opacity="0.5" x1="82.1514" y1="349.979" x2="345.151" y2="349.979" stroke="#D3DDDE"/>
<rect x="82.1514" y="411.479" width="65" height="36" rx="2" fill="#D3DDDE"/>
<rect x="153.151" y="428.479" width="192" height="19" rx="2" fill="#D3DDDE"/>
<rect x="153.151" y="411.479" width="77" height="13" rx="2" fill="#D3DDDE"/>
<line opacity="0.5" x1="82.1514" y1="402.979" x2="345.151" y2="402.979" stroke="#D3DDDE"/>
<rect x="82.1514" y="252.479" width="65" height="36" rx="2" fill="#D3DDDE"/>
<rect x="153.151" y="269.479" width="192" height="19" rx="2" fill="#D3DDDE"/>
<rect x="153.151" y="252.479" width="77" height="13" rx="2" fill="#D3DDDE"/>
<line opacity="0.5" x1="82.1514" y1="243.979" x2="345.151" y2="243.979" stroke="#D3DDDE"/>
<defs>
<filter id="filter0_d_114_104" x="0.782227" y="0.94043" width="425.738" height="554.117" filterUnits="userSpaceOnUse" color-interpolation-filters="sRGB">
<feFlood flood-opacity="0" result="BackgroundImageFix"/>
<feColorMatrix in="SourceAlpha" type="matrix" values="0 0 0 0 0 0 0 0 0 0 0 0 0 0 0 0 0 0 127 0" result="hardAlpha"/>
<feMorphology radius="1" operator="dilate" in="SourceAlpha" result="effect1_dropShadow_114_104"/>
<feOffset dy="4"/>
<feGaussianBlur stdDeviation="19.5"/>
<feComposite in2="hardAlpha" operator="out"/>
<feColorMatrix type="matrix" values="0 0 0 0 0.283333 0 0 0 0 0.283333 0 0 0 0 0.283333 0 0 0 0.11 0"/>
<feBlend mode="normal" in2="BackgroundImageFix" result="effect1_dropShadow_114_104"/>
<feBlend mode="normal" in="SourceGraphic" in2="effect1_dropShadow_114_104" result="shape"/>
</filter>
</defs>
</svg>
