<svg width="325" height="31" viewBox="0 0 325 31" fill="none" xmlns="http://www.w3.org/2000/svg">
<path d="M1.09006 7.10699L0.0900557 7.10699L1.09006 7.10699ZM7.09006 1.10698L7.09006 2.10698L7.09006 1.10698ZM313.09 1.10704L313.09 0.10704L313.09 1.10704ZM319.09 7.10704L318.09 7.10703L318.09 7.10705L319.09 7.10704ZM319.09 30.107L324.864 20.107L313.317 20.107L319.09 30.107ZM2.0901 30.107L2.09005 7.10699L0.0900557 7.10699L0.0900985 30.107L2.0901 30.107ZM7.09006 2.10698L313.09 2.10704L313.09 0.10704L7.09006 0.106985L7.09006 2.10698ZM318.09 7.10705L318.09 21.107L320.09 21.107L320.09 7.10704L318.09 7.10705ZM313.09 2.10704C315.852 2.10704 318.09 4.34562 318.09 7.10703L320.09 7.10706C320.09 3.24105 316.956 0.10704 313.09 0.10704L313.09 2.10704ZM2.09005 7.10699C2.09005 4.34556 4.32863 2.10698 7.09006 2.10698L7.09006 0.106985C3.22406 0.106984 0.0900481 3.24099 0.0900557 7.10699L2.09005 7.10699Z" fill="#C8D9E0"/>
</svg>
