<svg width="325" height="31" viewBox="0 0 325 31" fill="none" xmlns="http://www.w3.org/2000/svg">
<path d="M323.09 23.9389L322.09 23.9389L323.09 23.9389ZM317.09 29.9389L317.09 28.9389L317.09 29.9389ZM12.0901 29.9388L12.0901 28.9388L12.0901 29.9388ZM6.09007 23.9388L7.09007 23.9388L7.09006 23.9388L6.09007 23.9388ZM6.09011 0.938889L0.3166 10.9389L11.8636 10.9389L6.09011 0.938889ZM322.09 0.938942L322.09 23.9389L324.09 23.9389L324.09 0.938937L322.09 0.938942ZM317.09 28.9389L12.0901 28.9388L12.0901 30.9388L317.09 30.9389L317.09 28.9389ZM7.09006 23.9388L7.09009 9.9389L5.09009 9.93889L5.09008 23.9388L7.09006 23.9388ZM12.0901 28.9388C9.32865 28.9388 7.09006 26.7002 7.09007 23.9388L5.09007 23.9388C5.09006 27.8048 8.22406 30.9388 12.0901 30.9388L12.0901 28.9388ZM322.09 23.9389C322.09 26.7003 319.852 28.9389 317.09 28.9389L317.09 30.9389C320.956 30.9389 324.09 27.8049 324.09 23.9389L322.09 23.9389Z" fill="#C8D9E0"/>
</svg>
